<svg id="visual" viewBox="0 0 900 600" width="900" height="600" xmlns="http://www.w3.org/2000/svg" xmlns:xlink="http://www.w3.org/1999/xlink" version="1.1"><g stroke-width="10" stroke-linejoin="bevel"><path d="M465 318L432 316L442 387Z" fill="#000075" stroke="#000000"></path><path d="M442 387L499 329L465 318Z" fill="#000075" stroke="#000000"></path><path d="M442 387L510 339L499 329Z" fill="#000075" stroke="#000000"></path><path d="M432 316L379 327L442 387Z" fill="#000075" stroke="#000000"></path><path d="M425 251L411 288L432 316Z" fill="#000075" stroke="#000000"></path><path d="M432 316L411 288L379 327Z" fill="#000075" stroke="#000000"></path><path d="M425 251L432 316L465 318Z" fill="#000075" stroke="#000000"></path><path d="M379 327L374 381L442 387Z" fill="#000075" stroke="#000000"></path><path d="M468 432L478 424L442 387Z" fill="#000075" stroke="#000000"></path><path d="M442 387L478 424L510 339Z" fill="#000075" stroke="#000000"></path><path d="M431 448L468 432L442 387Z" fill="#000075" stroke="#000000"></path><path d="M351 284L357 338L379 327Z" fill="#000075" stroke="#000000"></path><path d="M379 327L357 338L374 381Z" fill="#000075" stroke="#000000"></path><path d="M332 379L371 402L374 381Z" fill="#000075" stroke="#000000"></path><path d="M374 381L371 402L442 387Z" fill="#000075" stroke="#000000"></path><path d="M563 456L527 406L478 424Z" fill="#000075" stroke="#000000"></path><path d="M478 424L527 406L510 339Z" fill="#000075" stroke="#000000"></path><path d="M371 402L431 448L442 387Z" fill="#000075" stroke="#000000"></path><path d="M542 291L465 318L499 329Z" fill="#000075" stroke="#000000"></path><path d="M516 234L425 251L465 318Z" fill="#000075" stroke="#000000"></path><path d="M411 288L372 271L379 327Z" fill="#000075" stroke="#000000"></path><path d="M527 406L546 320L510 339Z" fill="#000075" stroke="#000000"></path><path d="M510 339L546 320L499 329Z" fill="#000075" stroke="#000000"></path><path d="M425 251L372 271L411 288Z" fill="#000075" stroke="#000000"></path><path d="M380 443L420 457L431 448Z" fill="#000075" stroke="#000000"></path><path d="M431 448L426 470L468 432Z" fill="#000075" stroke="#000000"></path><path d="M556 483L563 456L478 424Z" fill="#000075" stroke="#000000"></path><path d="M546 320L542 291L499 329Z" fill="#000075" stroke="#000000"></path><path d="M371 402L380 443L431 448Z" fill="#000075" stroke="#000000"></path><path d="M367 219L366 267L372 271Z" fill="#000075" stroke="#000000"></path><path d="M372 271L351 284L379 327Z" fill="#000075" stroke="#000000"></path><path d="M366 267L351 284L372 271Z" fill="#000075" stroke="#000000"></path><path d="M292 374L332 379L357 338Z" fill="#000075" stroke="#000000"></path><path d="M357 338L332 379L374 381Z" fill="#000075" stroke="#000000"></path><path d="M371 402L295 474L380 443Z" fill="#000075" stroke="#000000"></path><path d="M416 500L426 470L420 457Z" fill="#000075" stroke="#000000"></path><path d="M420 457L426 470L431 448Z" fill="#000075" stroke="#000000"></path><path d="M542 291L516 234L465 318Z" fill="#000075" stroke="#000000"></path><path d="M366 267L315 291L351 284Z" fill="#000075" stroke="#000000"></path><path d="M351 284L315 291L357 338Z" fill="#000075" stroke="#000000"></path><path d="M598 290L556 247L542 291Z" fill="#000075" stroke="#000000"></path><path d="M542 291L556 247L516 234Z" fill="#000075" stroke="#000000"></path><path d="M371 500L416 500L420 457Z" fill="#000075" stroke="#000000"></path><path d="M556 483L478 424L518 515Z" fill="#000075" stroke="#000000"></path><path d="M371 500L420 457L380 443Z" fill="#000075" stroke="#000000"></path><path d="M425 251L367 219L372 271Z" fill="#000075" stroke="#000000"></path><path d="M366 267L281 227L315 291Z" fill="#000075" stroke="#000000"></path><path d="M449 186L367 219L425 251Z" fill="#000075" stroke="#000000"></path><path d="M315 291L292 374L357 338Z" fill="#000075" stroke="#000000"></path><path d="M332 379L295 474L371 402Z" fill="#000075" stroke="#000000"></path><path d="M478 424L468 432L518 515Z" fill="#000075" stroke="#000000"></path><path d="M527 406L619 351L546 320Z" fill="#000075" stroke="#000000"></path><path d="M546 320L598 290L542 291Z" fill="#000075" stroke="#000000"></path><path d="M619 351L598 290L546 320Z" fill="#000075" stroke="#000000"></path><path d="M507 171L449 186L516 234Z" fill="#000075" stroke="#000000"></path><path d="M516 234L449 186L425 251Z" fill="#000075" stroke="#000000"></path><path d="M333 500L371 500L380 443Z" fill="#000075" stroke="#000000"></path><path d="M518 515L468 432L426 470Z" fill="#000075" stroke="#000000"></path><path d="M619 351L527 406L626 414Z" fill="#000075" stroke="#000000"></path><path d="M630 365L619 351L626 414Z" fill="#000075" stroke="#000000"></path><path d="M281 227L285 281L315 291Z" fill="#000075" stroke="#000000"></path><path d="M315 291L256 357L292 374Z" fill="#000075" stroke="#000000"></path><path d="M256 357L276 405L292 374Z" fill="#000075" stroke="#000000"></path><path d="M292 374L276 405L332 379Z" fill="#000075" stroke="#000000"></path><path d="M474 546L518 515L426 470Z" fill="#000075" stroke="#000000"></path><path d="M474 546L426 470L416 500Z" fill="#000075" stroke="#000000"></path><path d="M588 220L561 209L556 247Z" fill="#000075" stroke="#000000"></path><path d="M556 247L561 209L516 234Z" fill="#000075" stroke="#000000"></path><path d="M626 414L527 406L563 456Z" fill="#000075" stroke="#000000"></path><path d="M619 351L642 303L598 290Z" fill="#000075" stroke="#000000"></path><path d="M295 474L333 500L380 443Z" fill="#000075" stroke="#000000"></path><path d="M371 500L421 539L416 500Z" fill="#000075" stroke="#000000"></path><path d="M561 209L507 171L516 234Z" fill="#000075" stroke="#000000"></path><path d="M666 220L590 226L598 290Z" fill="#000075" stroke="#000000"></path><path d="M598 290L590 226L556 247Z" fill="#000075" stroke="#000000"></path><path d="M492 119L473 123L507 171Z" fill="#000075" stroke="#000000"></path><path d="M593 476L626 414L563 456Z" fill="#000075" stroke="#000000"></path><path d="M331 528L421 539L371 500Z" fill="#000075" stroke="#000000"></path><path d="M285 281L256 357L315 291Z" fill="#000075" stroke="#000000"></path><path d="M590 226L588 220L556 247Z" fill="#000075" stroke="#000000"></path><path d="M556 483L593 476L563 456Z" fill="#000075" stroke="#000000"></path><path d="M593 530L593 476L556 483Z" fill="#000075" stroke="#000000"></path><path d="M282 474L295 474L276 405Z" fill="#000075" stroke="#000000"></path><path d="M276 405L295 474L332 379Z" fill="#000075" stroke="#000000"></path><path d="M421 539L474 546L416 500Z" fill="#000075" stroke="#000000"></path><path d="M518 515L593 530L556 483Z" fill="#000075" stroke="#000000"></path><path d="M688 335L642 303L630 365Z" fill="#000075" stroke="#000000"></path><path d="M630 365L642 303L619 351Z" fill="#000075" stroke="#000000"></path><path d="M632 151L580 155L588 220Z" fill="#000075" stroke="#000000"></path><path d="M507 171L457 148L449 186Z" fill="#000075" stroke="#000000"></path><path d="M373 159L346 174L367 219Z" fill="#000075" stroke="#000000"></path><path d="M367 219L281 227L366 267Z" fill="#000075" stroke="#000000"></path><path d="M373 159L367 219L449 186Z" fill="#000075" stroke="#000000"></path><path d="M401 127L373 159L449 186Z" fill="#000075" stroke="#000000"></path><path d="M225 443L282 474L276 405Z" fill="#000075" stroke="#000000"></path><path d="M295 474L331 528L333 500Z" fill="#000075" stroke="#000000"></path><path d="M326 171L281 227L367 219Z" fill="#000075" stroke="#000000"></path><path d="M285 281L241 304L256 357Z" fill="#000075" stroke="#000000"></path><path d="M684 408L654 373L626 414Z" fill="#000075" stroke="#000000"></path><path d="M626 414L654 373L630 365Z" fill="#000075" stroke="#000000"></path><path d="M217 277L241 304L285 281Z" fill="#000075" stroke="#000000"></path><path d="M256 357L213 364L276 405Z" fill="#000075" stroke="#000000"></path><path d="M282 474L331 528L295 474Z" fill="#000075" stroke="#000000"></path><path d="M333 500L331 528L371 500Z" fill="#000075" stroke="#000000"></path><path d="M421 539L423 563L474 546Z" fill="#000075" stroke="#000000"></path><path d="M379 600L423 563L421 539Z" fill="#000075" stroke="#000000"></path><path d="M318 158L326 171L346 174Z" fill="#000075" stroke="#000000"></path><path d="M346 174L326 171L367 219Z" fill="#000075" stroke="#000000"></path><path d="M417 122L401 127L449 186Z" fill="#000075" stroke="#000000"></path><path d="M373 159L318 158L346 174Z" fill="#000075" stroke="#000000"></path><path d="M507 171L473 123L457 148Z" fill="#000075" stroke="#000000"></path><path d="M457 148L417 122L449 186Z" fill="#000075" stroke="#000000"></path><path d="M492 119L507 171L580 155Z" fill="#000075" stroke="#000000"></path><path d="M473 123L417 122L457 148Z" fill="#000075" stroke="#000000"></path><path d="M298 136L318 158L343 74Z" fill="#000075" stroke="#000000"></path><path d="M326 171L318 158L281 227Z" fill="#000075" stroke="#000000"></path><path d="M558 564L518 515L474 546Z" fill="#000075" stroke="#000000"></path><path d="M558 564L593 530L518 515Z" fill="#000075" stroke="#000000"></path><path d="M593 476L637 502L626 414Z" fill="#000075" stroke="#000000"></path><path d="M282 474L325 548L331 528Z" fill="#000075" stroke="#000000"></path><path d="M331 528L379 600L421 539Z" fill="#000075" stroke="#000000"></path><path d="M241 304L213 364L256 357Z" fill="#000075" stroke="#000000"></path><path d="M282 474L239 556L325 548Z" fill="#000075" stroke="#000000"></path><path d="M580 155L507 171L561 209Z" fill="#000075" stroke="#000000"></path><path d="M368 36L401 127L417 122Z" fill="#000075" stroke="#000000"></path><path d="M666 220L588 220L590 226Z" fill="#000075" stroke="#000000"></path><path d="M588 220L580 155L561 209Z" fill="#000075" stroke="#000000"></path><path d="M194 397L225 443L276 405Z" fill="#000075" stroke="#000000"></path><path d="M225 226L217 277L285 281Z" fill="#000075" stroke="#000000"></path><path d="M241 304L215 281L213 364Z" fill="#000075" stroke="#000000"></path><path d="M225 226L285 281L281 227Z" fill="#000075" stroke="#000000"></path><path d="M471 600L558 564L474 546Z" fill="#000075" stroke="#000000"></path><path d="M217 277L215 281L241 304Z" fill="#000075" stroke="#000000"></path><path d="M654 373L688 335L630 365Z" fill="#000075" stroke="#000000"></path><path d="M642 303L666 220L598 290Z" fill="#000075" stroke="#000000"></path><path d="M684 408L688 335L654 373Z" fill="#000075" stroke="#000000"></path><path d="M637 566L637 502L593 530Z" fill="#000075" stroke="#000000"></path><path d="M593 530L637 502L593 476Z" fill="#000075" stroke="#000000"></path><path d="M688 437L684 408L626 414Z" fill="#000075" stroke="#000000"></path><path d="M558 564L591 553L593 530Z" fill="#000075" stroke="#000000"></path><path d="M397 600L448 600L423 563Z" fill="#000075" stroke="#000000"></path><path d="M423 563L448 600L474 546Z" fill="#000075" stroke="#000000"></path><path d="M448 600L471 600L474 546Z" fill="#000075" stroke="#000000"></path><path d="M558 564L583 600L591 553Z" fill="#000075" stroke="#000000"></path><path d="M261 137L225 226L281 227Z" fill="#000075" stroke="#000000"></path><path d="M153 226L140 289L215 281Z" fill="#000075" stroke="#000000"></path><path d="M379 600L397 600L423 563Z" fill="#000075" stroke="#000000"></path><path d="M193 469L226 478L225 443Z" fill="#000075" stroke="#000000"></path><path d="M225 443L226 478L282 474Z" fill="#000075" stroke="#000000"></path><path d="M325 548L379 600L331 528Z" fill="#000075" stroke="#000000"></path><path d="M698 293L666 220L642 303Z" fill="#000075" stroke="#000000"></path><path d="M678 480L688 437L626 414Z" fill="#000075" stroke="#000000"></path><path d="M684 408L741 374L688 335Z" fill="#000075" stroke="#000000"></path><path d="M164 416L194 397L151 367Z" fill="#000075" stroke="#000000"></path><path d="M213 364L194 397L276 405Z" fill="#000075" stroke="#000000"></path><path d="M780 310L698 293L688 335Z" fill="#000075" stroke="#000000"></path><path d="M688 335L698 293L642 303Z" fill="#000075" stroke="#000000"></path><path d="M311 600L379 600L325 548Z" fill="#000075" stroke="#000000"></path><path d="M343 74L318 158L373 159Z" fill="#000075" stroke="#000000"></path><path d="M318 158L261 137L281 227Z" fill="#000075" stroke="#000000"></path><path d="M343 74L373 159L401 127Z" fill="#000075" stroke="#000000"></path><path d="M698 293L678 221L666 220Z" fill="#000075" stroke="#000000"></path><path d="M670 190L632 151L588 220Z" fill="#000075" stroke="#000000"></path><path d="M637 502L678 480L626 414Z" fill="#000075" stroke="#000000"></path><path d="M694 492L678 480L637 502Z" fill="#000075" stroke="#000000"></path><path d="M670 190L588 220L666 220Z" fill="#000075" stroke="#000000"></path><path d="M580 155L572 99L492 119Z" fill="#000075" stroke="#000000"></path><path d="M674 167L670 190L715 141Z" fill="#000075" stroke="#000000"></path><path d="M678 221L670 190L666 220Z" fill="#000075" stroke="#000000"></path><path d="M632 151L593 117L580 155Z" fill="#000075" stroke="#000000"></path><path d="M164 416L193 469L225 443Z" fill="#000075" stroke="#000000"></path><path d="M239 556L311 600L325 548Z" fill="#000075" stroke="#000000"></path><path d="M593 117L572 99L580 155Z" fill="#000075" stroke="#000000"></path><path d="M484 30L417 122L473 123Z" fill="#000075" stroke="#000000"></path><path d="M304 90L261 137L298 136Z" fill="#000075" stroke="#000000"></path><path d="M343 74L401 127L368 36Z" fill="#000075" stroke="#000000"></path><path d="M298 136L261 137L318 158Z" fill="#000075" stroke="#000000"></path><path d="M222 526L282 474L226 478Z" fill="#000075" stroke="#000000"></path><path d="M471 600L583 600L558 564Z" fill="#000075" stroke="#000000"></path><path d="M687 553L694 492L637 502Z" fill="#000075" stroke="#000000"></path><path d="M193 469L222 526L226 478Z" fill="#000075" stroke="#000000"></path><path d="M637 566L593 530L591 553Z" fill="#000075" stroke="#000000"></path><path d="M678 480L694 492L688 437Z" fill="#000075" stroke="#000000"></path><path d="M731 446L741 374L684 408Z" fill="#000075" stroke="#000000"></path><path d="M261 137L198 209L225 226Z" fill="#000075" stroke="#000000"></path><path d="M225 226L198 209L217 277Z" fill="#000075" stroke="#000000"></path><path d="M151 367L194 397L213 364Z" fill="#000075" stroke="#000000"></path><path d="M620 600L637 566L591 553Z" fill="#000075" stroke="#000000"></path><path d="M151 367L213 364L140 289Z" fill="#000075" stroke="#000000"></path><path d="M194 397L164 416L225 443Z" fill="#000075" stroke="#000000"></path><path d="M211 600L239 556L222 526Z" fill="#000075" stroke="#000000"></path><path d="M726 234L670 190L678 221Z" fill="#000075" stroke="#000000"></path><path d="M670 190L674 167L632 151Z" fill="#000075" stroke="#000000"></path><path d="M632 151L627 118L593 117Z" fill="#000075" stroke="#000000"></path><path d="M593 117L616 43L572 99Z" fill="#000075" stroke="#000000"></path><path d="M222 526L239 556L282 474Z" fill="#000075" stroke="#000000"></path><path d="M668 94L627 118L632 151Z" fill="#000075" stroke="#000000"></path><path d="M484 30L473 123L492 119Z" fill="#000075" stroke="#000000"></path><path d="M731 446L684 408L688 437Z" fill="#000075" stroke="#000000"></path><path d="M698 293L726 234L678 221Z" fill="#000075" stroke="#000000"></path><path d="M140 289L213 364L215 281Z" fill="#000075" stroke="#000000"></path><path d="M343 74L304 90L298 136Z" fill="#000075" stroke="#000000"></path><path d="M777 498L731 446L694 492Z" fill="#000075" stroke="#000000"></path><path d="M694 492L731 446L688 437Z" fill="#000075" stroke="#000000"></path><path d="M780 310L726 234L698 293Z" fill="#000075" stroke="#000000"></path><path d="M583 600L620 600L591 553Z" fill="#000075" stroke="#000000"></path><path d="M637 566L687 553L637 502Z" fill="#000075" stroke="#000000"></path><path d="M731 446L754 378L741 374Z" fill="#000075" stroke="#000000"></path><path d="M741 374L780 310L688 335Z" fill="#000075" stroke="#000000"></path><path d="M153 226L215 281L217 277Z" fill="#000075" stroke="#000000"></path><path d="M187 155L175 192L198 209Z" fill="#000075" stroke="#000000"></path><path d="M198 209L153 226L217 277Z" fill="#000075" stroke="#000000"></path><path d="M187 155L198 209L261 137Z" fill="#000075" stroke="#000000"></path><path d="M669 600L687 553L637 566Z" fill="#000075" stroke="#000000"></path><path d="M175 192L153 226L198 209Z" fill="#000075" stroke="#000000"></path><path d="M239 556L248 600L311 600Z" fill="#000075" stroke="#000000"></path><path d="M211 600L248 600L239 556Z" fill="#000075" stroke="#000000"></path><path d="M167 524L222 526L193 469Z" fill="#000075" stroke="#000000"></path><path d="M535 31L492 119L572 99Z" fill="#000075" stroke="#000000"></path><path d="M535 31L484 30L492 119Z" fill="#000075" stroke="#000000"></path><path d="M428 18L368 36L417 122Z" fill="#000075" stroke="#000000"></path><path d="M343 74L273 46L304 90Z" fill="#000075" stroke="#000000"></path><path d="M233 102L187 155L261 137Z" fill="#000075" stroke="#000000"></path><path d="M233 102L261 137L304 90Z" fill="#000075" stroke="#000000"></path><path d="M129 162L118 226L153 226Z" fill="#000075" stroke="#000000"></path><path d="M105 418L137 454L164 416Z" fill="#000075" stroke="#000000"></path><path d="M164 416L137 454L193 469Z" fill="#000075" stroke="#000000"></path><path d="M105 418L164 416L151 367Z" fill="#000075" stroke="#000000"></path><path d="M379 0L366 33L368 36Z" fill="#000075" stroke="#000000"></path><path d="M368 36L366 33L343 74Z" fill="#000075" stroke="#000000"></path><path d="M273 46L233 102L304 90Z" fill="#000075" stroke="#000000"></path><path d="M138 483L167 524L193 469Z" fill="#000075" stroke="#000000"></path><path d="M616 43L535 31L572 99Z" fill="#000075" stroke="#000000"></path><path d="M484 30L428 18L417 122Z" fill="#000075" stroke="#000000"></path><path d="M422 0L428 18L496 0Z" fill="#000075" stroke="#000000"></path><path d="M620 600L669 600L637 566Z" fill="#000075" stroke="#000000"></path><path d="M780 514L777 498L694 492Z" fill="#000075" stroke="#000000"></path><path d="M137 454L138 483L193 469Z" fill="#000075" stroke="#000000"></path><path d="M794 291L780 310L813 317Z" fill="#000075" stroke="#000000"></path><path d="M754 378L780 310L741 374Z" fill="#000075" stroke="#000000"></path><path d="M674 167L668 94L632 151Z" fill="#000075" stroke="#000000"></path><path d="M627 118L616 43L593 117Z" fill="#000075" stroke="#000000"></path><path d="M715 141L668 94L674 167Z" fill="#000075" stroke="#000000"></path><path d="M715 141L670 190L760 194Z" fill="#000075" stroke="#000000"></path><path d="M760 194L670 190L726 234Z" fill="#000075" stroke="#000000"></path><path d="M167 524L211 600L222 526Z" fill="#000075" stroke="#000000"></path><path d="M150 600L211 600L167 524Z" fill="#000075" stroke="#000000"></path><path d="M233 102L180 133L187 155Z" fill="#000075" stroke="#000000"></path><path d="M187 155L129 162L175 192Z" fill="#000075" stroke="#000000"></path><path d="M91 335L151 367L140 289Z" fill="#000075" stroke="#000000"></path><path d="M77 384L105 418L151 367Z" fill="#000075" stroke="#000000"></path><path d="M137 454L88 488L138 483Z" fill="#000075" stroke="#000000"></path><path d="M294 0L273 46L343 74Z" fill="#000075" stroke="#000000"></path><path d="M233 102L182 68L180 133Z" fill="#000075" stroke="#000000"></path><path d="M294 0L343 74L366 33Z" fill="#000075" stroke="#000000"></path><path d="M792 224L760 194L726 234Z" fill="#000075" stroke="#000000"></path><path d="M668 94L616 43L627 118Z" fill="#000075" stroke="#000000"></path><path d="M496 0L428 18L484 30Z" fill="#000075" stroke="#000000"></path><path d="M428 18L406 0L368 36Z" fill="#000075" stroke="#000000"></path><path d="M496 0L484 30L535 31Z" fill="#000075" stroke="#000000"></path><path d="M129 162L153 226L175 192Z" fill="#000075" stroke="#000000"></path><path d="M153 226L118 226L140 289Z" fill="#000075" stroke="#000000"></path><path d="M422 0L406 0L428 18Z" fill="#000075" stroke="#000000"></path><path d="M813 317L780 310L754 378Z" fill="#000075" stroke="#000000"></path><path d="M780 310L794 291L726 234Z" fill="#000075" stroke="#000000"></path><path d="M807 471L754 378L731 446Z" fill="#000075" stroke="#000000"></path><path d="M545 0L496 0L535 31Z" fill="#000075" stroke="#000000"></path><path d="M94 269L91 335L140 289Z" fill="#000075" stroke="#000000"></path><path d="M406 0L379 0L368 36Z" fill="#000075" stroke="#000000"></path><path d="M755 122L703 100L715 141Z" fill="#000075" stroke="#000000"></path><path d="M715 141L703 100L668 94Z" fill="#000075" stroke="#000000"></path><path d="M699 51L622 24L616 43Z" fill="#000075" stroke="#000000"></path><path d="M206 55L241 53L170 0Z" fill="#000075" stroke="#000000"></path><path d="M273 46L241 53L233 102Z" fill="#000075" stroke="#000000"></path><path d="M75 224L105 231L73 171Z" fill="#000075" stroke="#000000"></path><path d="M118 226L94 269L140 289Z" fill="#000075" stroke="#000000"></path><path d="M129 162L187 155L144 129Z" fill="#000075" stroke="#000000"></path><path d="M105 231L94 269L118 226Z" fill="#000075" stroke="#000000"></path><path d="M780 514L694 492L687 553Z" fill="#000075" stroke="#000000"></path><path d="M567 0L545 0L535 31Z" fill="#000075" stroke="#000000"></path><path d="M825 254L798 252L794 291Z" fill="#000075" stroke="#000000"></path><path d="M794 291L798 252L726 234Z" fill="#000075" stroke="#000000"></path><path d="M760 194L755 122L715 141Z" fill="#000075" stroke="#000000"></path><path d="M798 252L792 224L726 234Z" fill="#000075" stroke="#000000"></path><path d="M830 381L813 317L754 378Z" fill="#000075" stroke="#000000"></path><path d="M798 252L825 254L792 224Z" fill="#000075" stroke="#000000"></path><path d="M669 600L718 600L687 553Z" fill="#000075" stroke="#000000"></path><path d="M144 129L187 155L180 133Z" fill="#000075" stroke="#000000"></path><path d="M622 24L567 0L616 43Z" fill="#000075" stroke="#000000"></path><path d="M616 43L567 0L535 31Z" fill="#000075" stroke="#000000"></path><path d="M699 51L616 43L668 94Z" fill="#000075" stroke="#000000"></path><path d="M91 335L77 384L151 367Z" fill="#000075" stroke="#000000"></path><path d="M105 418L88 488L137 454Z" fill="#000075" stroke="#000000"></path><path d="M66 380L77 384L91 335Z" fill="#000075" stroke="#000000"></path><path d="M771 575L780 514L687 553Z" fill="#000075" stroke="#000000"></path><path d="M777 498L807 471L731 446Z" fill="#000075" stroke="#000000"></path><path d="M182 68L144 129L180 133Z" fill="#000075" stroke="#000000"></path><path d="M718 600L729 600L687 553Z" fill="#000075" stroke="#000000"></path><path d="M853 495L807 471L780 514Z" fill="#000075" stroke="#000000"></path><path d="M780 514L807 471L777 498Z" fill="#000075" stroke="#000000"></path><path d="M276 0L241 53L273 46Z" fill="#000075" stroke="#000000"></path><path d="M241 53L206 55L233 102Z" fill="#000075" stroke="#000000"></path><path d="M58 334L66 380L91 335Z" fill="#000075" stroke="#000000"></path><path d="M77 384L64 426L105 418Z" fill="#000075" stroke="#000000"></path><path d="M138 483L88 488L167 524Z" fill="#000075" stroke="#000000"></path><path d="M0 297L66 318L94 269Z" fill="#000075" stroke="#000000"></path><path d="M94 269L66 318L91 335Z" fill="#000075" stroke="#000000"></path><path d="M75 224L94 269L105 231Z" fill="#000075" stroke="#000000"></path><path d="M379 0L294 0L366 33Z" fill="#000075" stroke="#000000"></path><path d="M771 114L755 122L793 126Z" fill="#000075" stroke="#000000"></path><path d="M703 100L699 51L668 94Z" fill="#000075" stroke="#000000"></path><path d="M807 471L829 383L754 378Z" fill="#000075" stroke="#000000"></path><path d="M813 317L825 254L794 291Z" fill="#000075" stroke="#000000"></path><path d="M64 426L88 488L105 418Z" fill="#000075" stroke="#000000"></path><path d="M851 361L830 381L856 426Z" fill="#000075" stroke="#000000"></path><path d="M829 383L830 381L754 378Z" fill="#000075" stroke="#000000"></path><path d="M111 83L182 68L102 33Z" fill="#000075" stroke="#000000"></path><path d="M206 55L182 68L233 102Z" fill="#000075" stroke="#000000"></path><path d="M100 600L150 600L167 524Z" fill="#000075" stroke="#000000"></path><path d="M0 362L58 334L0 297Z" fill="#000075" stroke="#000000"></path><path d="M66 318L58 334L91 335Z" fill="#000075" stroke="#000000"></path><path d="M294 0L276 0L273 46Z" fill="#000075" stroke="#000000"></path><path d="M37 492L64 426L0 479Z" fill="#000075" stroke="#000000"></path><path d="M66 380L64 426L77 384Z" fill="#000075" stroke="#000000"></path><path d="M852 328L825 254L813 317Z" fill="#000075" stroke="#000000"></path><path d="M793 126L755 122L760 194Z" fill="#000075" stroke="#000000"></path><path d="M720 49L699 51L703 100Z" fill="#000075" stroke="#000000"></path><path d="M622 24L642 0L567 0Z" fill="#000075" stroke="#000000"></path><path d="M73 171L118 226L129 162Z" fill="#000075" stroke="#000000"></path><path d="M73 171L105 231L118 226Z" fill="#000075" stroke="#000000"></path><path d="M73 171L129 162L64 128Z" fill="#000075" stroke="#000000"></path><path d="M729 600L771 575L687 553Z" fill="#000075" stroke="#000000"></path><path d="M699 51L642 0L622 24Z" fill="#000075" stroke="#000000"></path><path d="M793 126L760 194L792 224Z" fill="#000075" stroke="#000000"></path><path d="M746 66L720 49L703 100Z" fill="#000075" stroke="#000000"></path><path d="M699 51L721 0L642 0Z" fill="#000075" stroke="#000000"></path><path d="M856 426L830 381L829 383Z" fill="#000075" stroke="#000000"></path><path d="M830 381L851 361L813 317Z" fill="#000075" stroke="#000000"></path><path d="M856 426L829 383L807 471Z" fill="#000075" stroke="#000000"></path><path d="M851 361L852 328L813 317Z" fill="#000075" stroke="#000000"></path><path d="M771 575L795 560L780 514Z" fill="#000075" stroke="#000000"></path><path d="M746 66L703 100L755 122Z" fill="#000075" stroke="#000000"></path><path d="M844 125L793 126L792 224Z" fill="#000075" stroke="#000000"></path><path d="M771 114L746 66L755 122Z" fill="#000075" stroke="#000000"></path><path d="M870 229L792 224L825 254Z" fill="#000075" stroke="#000000"></path><path d="M793 34L746 66L771 114Z" fill="#000075" stroke="#000000"></path><path d="M64 128L129 162L67 120Z" fill="#000075" stroke="#000000"></path><path d="M0 297L58 334L66 318Z" fill="#000075" stroke="#000000"></path><path d="M853 495L856 426L807 471Z" fill="#000075" stroke="#000000"></path><path d="M900 283L825 254L852 328Z" fill="#000075" stroke="#000000"></path><path d="M67 562L167 524L88 488Z" fill="#000075" stroke="#000000"></path><path d="M67 562L100 600L167 524Z" fill="#000075" stroke="#000000"></path><path d="M182 68L111 83L144 129Z" fill="#000075" stroke="#000000"></path><path d="M170 0L182 68L206 55Z" fill="#000075" stroke="#000000"></path><path d="M795 560L853 495L780 514Z" fill="#000075" stroke="#000000"></path><path d="M64 426L37 492L88 488Z" fill="#000075" stroke="#000000"></path><path d="M0 397L64 426L66 380Z" fill="#000075" stroke="#000000"></path><path d="M0 362L66 380L58 334Z" fill="#000075" stroke="#000000"></path><path d="M37 492L67 562L88 488Z" fill="#000075" stroke="#000000"></path><path d="M900 378L852 328L851 361Z" fill="#000075" stroke="#000000"></path><path d="M900 283L870 229L825 254Z" fill="#000075" stroke="#000000"></path><path d="M900 378L851 361L856 426Z" fill="#000075" stroke="#000000"></path><path d="M67 120L129 162L144 129Z" fill="#000075" stroke="#000000"></path><path d="M0 297L94 269L0 233Z" fill="#000075" stroke="#000000"></path><path d="M111 83L67 120L144 129Z" fill="#000075" stroke="#000000"></path><path d="M745 0L721 0L720 49Z" fill="#000075" stroke="#000000"></path><path d="M720 49L721 0L699 51Z" fill="#000075" stroke="#000000"></path><path d="M745 0L720 49L746 66Z" fill="#000075" stroke="#000000"></path><path d="M793 34L771 114L793 126Z" fill="#000075" stroke="#000000"></path><path d="M276 0L170 0L241 53Z" fill="#000075" stroke="#000000"></path><path d="M111 83L35 72L67 120Z" fill="#000075" stroke="#000000"></path><path d="M38 167L75 224L73 171Z" fill="#000075" stroke="#000000"></path><path d="M0 171L38 167L0 116Z" fill="#000075" stroke="#000000"></path><path d="M64 128L38 167L73 171Z" fill="#000075" stroke="#000000"></path><path d="M0 362L0 397L66 380Z" fill="#000075" stroke="#000000"></path><path d="M0 233L94 269L75 224Z" fill="#000075" stroke="#000000"></path><path d="M795 560L839 577L853 495Z" fill="#000075" stroke="#000000"></path><path d="M828 600L839 577L795 560Z" fill="#000075" stroke="#000000"></path><path d="M828 600L795 560L771 575Z" fill="#000075" stroke="#000000"></path><path d="M900 425L856 426L900 445Z" fill="#000075" stroke="#000000"></path><path d="M900 425L900 378L856 426Z" fill="#000075" stroke="#000000"></path><path d="M729 600L828 600L771 575Z" fill="#000075" stroke="#000000"></path><path d="M870 229L844 125L792 224Z" fill="#000075" stroke="#000000"></path><path d="M900 378L900 283L852 328Z" fill="#000075" stroke="#000000"></path><path d="M900 122L846 117L844 125Z" fill="#000075" stroke="#000000"></path><path d="M900 445L856 426L853 495Z" fill="#000075" stroke="#000000"></path><path d="M793 34L745 0L746 66Z" fill="#000075" stroke="#000000"></path><path d="M0 206L0 233L75 224Z" fill="#000075" stroke="#000000"></path><path d="M900 178L844 125L870 229Z" fill="#000075" stroke="#000000"></path><path d="M844 125L846 117L793 126Z" fill="#000075" stroke="#000000"></path><path d="M900 506L900 445L853 495Z" fill="#000075" stroke="#000000"></path><path d="M0 397L0 479L64 426Z" fill="#000075" stroke="#000000"></path><path d="M37 492L16 526L67 562Z" fill="#000075" stroke="#000000"></path><path d="M0 510L16 526L37 492Z" fill="#000075" stroke="#000000"></path><path d="M67 562L42 600L100 600Z" fill="#000075" stroke="#000000"></path><path d="M0 171L0 206L38 167Z" fill="#000075" stroke="#000000"></path><path d="M38 167L0 206L75 224Z" fill="#000075" stroke="#000000"></path><path d="M126 0L102 33L182 68Z" fill="#000075" stroke="#000000"></path><path d="M900 283L900 231L870 229Z" fill="#000075" stroke="#000000"></path><path d="M846 117L793 34L793 126Z" fill="#000075" stroke="#000000"></path><path d="M38 167L64 128L0 116Z" fill="#000075" stroke="#000000"></path><path d="M0 479L0 510L37 492Z" fill="#000075" stroke="#000000"></path><path d="M170 0L126 0L182 68Z" fill="#000075" stroke="#000000"></path><path d="M0 571L67 562L16 526Z" fill="#000075" stroke="#000000"></path><path d="M0 571L42 600L67 562Z" fill="#000075" stroke="#000000"></path><path d="M900 516L853 495L839 577Z" fill="#000075" stroke="#000000"></path><path d="M900 516L900 506L853 495Z" fill="#000075" stroke="#000000"></path><path d="M35 72L111 83L102 33Z" fill="#000075" stroke="#000000"></path><path d="M0 116L64 128L67 120Z" fill="#000075" stroke="#000000"></path><path d="M900 600L900 516L839 577Z" fill="#000075" stroke="#000000"></path><path d="M126 0L111 0L102 33Z" fill="#000075" stroke="#000000"></path><path d="M900 231L900 178L870 229Z" fill="#000075" stroke="#000000"></path><path d="M832 0L823 0L793 34Z" fill="#000075" stroke="#000000"></path><path d="M63 0L35 72L102 33Z" fill="#000075" stroke="#000000"></path><path d="M0 510L0 571L16 526Z" fill="#000075" stroke="#000000"></path><path d="M35 72L0 116L67 120Z" fill="#000075" stroke="#000000"></path><path d="M900 178L900 122L844 125Z" fill="#000075" stroke="#000000"></path><path d="M0 571L0 600L42 600Z" fill="#000075" stroke="#000000"></path><path d="M864 40L793 34L846 117Z" fill="#000075" stroke="#000000"></path><path d="M793 34L823 0L745 0Z" fill="#000075" stroke="#000000"></path><path d="M828 600L900 600L839 577Z" fill="#000075" stroke="#000000"></path><path d="M111 0L63 0L102 33Z" fill="#000075" stroke="#000000"></path><path d="M35 72L0 61L0 116Z" fill="#000075" stroke="#000000"></path><path d="M900 79L864 40L846 117Z" fill="#000075" stroke="#000000"></path><path d="M864 40L832 0L793 34Z" fill="#000075" stroke="#000000"></path><path d="M900 122L900 79L846 117Z" fill="#000075" stroke="#000000"></path><path d="M864 40L900 0L832 0Z" fill="#000075" stroke="#000000"></path><path d="M900 79L900 74L864 40Z" fill="#000075" stroke="#000000"></path><path d="M0 0L0 61L35 72Z" fill="#000075" stroke="#000000"></path><path d="M63 0L0 0L35 72Z" fill="#000075" stroke="#000000"></path><path d="M900 74L900 0L864 40Z" fill="#000075" stroke="#000000"></path></g></svg>