<svg id="visual" viewBox="0 0 900 600" width="900" height="600" xmlns="http://www.w3.org/2000/svg" xmlns:xlink="http://www.w3.org/1999/xlink" version="1.1"><g stroke-width="5" stroke-linejoin="bevel"><path d="M371 320L412 226L329 284Z" fill="#16324b" stroke="#000000"></path><path d="M534 267L467 206L412 226Z" fill="#0e2c45" stroke="#000000"></path><path d="M369 126L315 176L412 226Z" fill="#000d25" stroke="#000000"></path><path d="M412 226L315 176L329 284Z" fill="#00152b" stroke="#000000"></path><path d="M462 130L369 126L412 226Z" fill="#001b31" stroke="#000000"></path><path d="M371 320L534 267L412 226Z" fill="#1d3852" stroke="#000000"></path><path d="M571 233L462 130L467 206Z" fill="#05263e" stroke="#000000"></path><path d="M467 206L462 130L412 226Z" fill="#00152b" stroke="#000000"></path><path d="M329 284L328 429L371 320Z" fill="#1d3852" stroke="#000000"></path><path d="M371 320L471 414L534 267Z" fill="#05263e" stroke="#000000"></path><path d="M189 309L328 429L329 284Z" fill="#05263e" stroke="#000000"></path><path d="M433 432L471 414L371 320Z" fill="#2b4560" stroke="#000000"></path><path d="M328 429L433 432L371 320Z" fill="#002038" stroke="#000000"></path><path d="M232 132L206 214L315 176Z" fill="#1d3852" stroke="#000000"></path><path d="M315 176L206 214L329 284Z" fill="#16324b" stroke="#000000"></path><path d="M617 323L571 233L534 267Z" fill="#000000" stroke="#000000"></path><path d="M534 267L571 233L467 206Z" fill="#243f59" stroke="#000000"></path><path d="M206 214L189 309L329 284Z" fill="#1d3852" stroke="#000000"></path><path d="M400 0L318 82L369 126Z" fill="#2b4560" stroke="#000000"></path><path d="M369 126L318 82L315 176Z" fill="#000000" stroke="#000000"></path><path d="M318 82L232 132L315 176Z" fill="#000d25" stroke="#000000"></path><path d="M328 429L413 467L433 432Z" fill="#00152b" stroke="#000000"></path><path d="M433 432L503 475L471 414Z" fill="#2b4560" stroke="#000000"></path><path d="M186 415L330 479L328 429Z" fill="#05263e" stroke="#000000"></path><path d="M328 429L330 479L413 467Z" fill="#000d25" stroke="#000000"></path><path d="M413 467L503 475L433 432Z" fill="#1d3852" stroke="#000000"></path><path d="M587 398L617 323L534 267Z" fill="#000d25" stroke="#000000"></path><path d="M517 600L503 475L413 467Z" fill="#001b31" stroke="#000000"></path><path d="M189 309L186 415L328 429Z" fill="#000000" stroke="#000000"></path><path d="M587 398L534 267L471 414Z" fill="#05263e" stroke="#000000"></path><path d="M503 475L587 398L471 414Z" fill="#243f59" stroke="#000000"></path><path d="M497 0L400 0L462 130Z" fill="#243f59" stroke="#000000"></path><path d="M462 130L400 0L369 126Z" fill="#001b31" stroke="#000000"></path><path d="M318 82L270 0L232 132Z" fill="#1d3852" stroke="#000000"></path><path d="M400 0L270 0L318 82Z" fill="#05263e" stroke="#000000"></path><path d="M95 198L189 309L206 214Z" fill="#002038" stroke="#000000"></path><path d="M673 211L608 89L571 233Z" fill="#000d25" stroke="#000000"></path><path d="M571 233L608 89L462 130Z" fill="#05263e" stroke="#000000"></path><path d="M95 198L96 339L189 309Z" fill="#16324b" stroke="#000000"></path><path d="M189 309L96 339L186 415Z" fill="#243f59" stroke="#000000"></path><path d="M95 198L206 214L232 132Z" fill="#001b31" stroke="#000000"></path><path d="M608 89L497 0L462 130Z" fill="#243f59" stroke="#000000"></path><path d="M135 63L95 198L232 132Z" fill="#1d3852" stroke="#000000"></path><path d="M731 315L673 211L617 323Z" fill="#05263e" stroke="#000000"></path><path d="M617 323L673 211L571 233Z" fill="#001b31" stroke="#000000"></path><path d="M503 475L614 465L587 398Z" fill="#243f59" stroke="#000000"></path><path d="M587 398L685 433L617 323Z" fill="#00152b" stroke="#000000"></path><path d="M186 415L181 512L330 479Z" fill="#001b31" stroke="#000000"></path><path d="M330 479L377 600L413 467Z" fill="#243f59" stroke="#000000"></path><path d="M503 475L517 600L614 465Z" fill="#000000" stroke="#000000"></path><path d="M119 485L181 512L186 415Z" fill="#2b4560" stroke="#000000"></path><path d="M201 0L135 63L232 132Z" fill="#002038" stroke="#000000"></path><path d="M270 0L201 0L232 132Z" fill="#05263e" stroke="#000000"></path><path d="M0 421L90 424L96 339Z" fill="#2b4560" stroke="#000000"></path><path d="M96 339L90 424L186 415Z" fill="#00152b" stroke="#000000"></path><path d="M339 600L377 600L330 479Z" fill="#00152b" stroke="#000000"></path><path d="M196 600L339 600L330 479Z" fill="#000d25" stroke="#000000"></path><path d="M90 424L119 485L186 415Z" fill="#00152b" stroke="#000000"></path><path d="M181 512L196 600L330 479Z" fill="#2b4560" stroke="#000000"></path><path d="M695 485L685 433L614 465Z" fill="#243f59" stroke="#000000"></path><path d="M614 465L685 433L587 398Z" fill="#001b31" stroke="#000000"></path><path d="M685 433L731 315L617 323Z" fill="#0e2c45" stroke="#000000"></path><path d="M679 0L619 0L608 89Z" fill="#0e2c45" stroke="#000000"></path><path d="M713 68L608 89L673 211Z" fill="#002038" stroke="#000000"></path><path d="M608 89L619 0L497 0Z" fill="#001b31" stroke="#000000"></path><path d="M377 600L517 600L413 467Z" fill="#001b31" stroke="#000000"></path><path d="M70 600L196 600L181 512Z" fill="#000d25" stroke="#000000"></path><path d="M95 198L0 294L96 339Z" fill="#1d3852" stroke="#000000"></path><path d="M90 424L0 516L119 485Z" fill="#16324b" stroke="#000000"></path><path d="M0 181L0 294L95 198Z" fill="#00152b" stroke="#000000"></path><path d="M201 0L109 0L135 63Z" fill="#000000" stroke="#000000"></path><path d="M0 134L0 181L95 198Z" fill="#000d25" stroke="#000000"></path><path d="M619 600L695 485L614 465Z" fill="#001b31" stroke="#000000"></path><path d="M685 433L773 388L731 315Z" fill="#002038" stroke="#000000"></path><path d="M768 232L713 68L673 211Z" fill="#001b31" stroke="#000000"></path><path d="M0 134L95 198L135 63Z" fill="#2b4560" stroke="#000000"></path><path d="M838 273L768 232L731 315Z" fill="#16324b" stroke="#000000"></path><path d="M731 315L768 232L673 211Z" fill="#002038" stroke="#000000"></path><path d="M713 68L679 0L608 89Z" fill="#00152b" stroke="#000000"></path><path d="M0 0L0 134L135 63Z" fill="#002038" stroke="#000000"></path><path d="M0 294L0 421L96 339Z" fill="#2b4560" stroke="#000000"></path><path d="M119 485L70 600L181 512Z" fill="#00152b" stroke="#000000"></path><path d="M517 600L619 600L614 465Z" fill="#05263e" stroke="#000000"></path><path d="M822 504L773 388L695 485Z" fill="#1d3852" stroke="#000000"></path><path d="M695 485L773 388L685 433Z" fill="#000d25" stroke="#000000"></path><path d="M0 421L0 516L90 424Z" fill="#001b31" stroke="#000000"></path><path d="M0 516L70 600L119 485Z" fill="#000d25" stroke="#000000"></path><path d="M773 388L838 273L731 315Z" fill="#16324b" stroke="#000000"></path><path d="M768 232L821 114L713 68Z" fill="#1d3852" stroke="#000000"></path><path d="M713 68L777 0L679 0Z" fill="#000000" stroke="#000000"></path><path d="M109 0L0 0L135 63Z" fill="#243f59" stroke="#000000"></path><path d="M619 600L708 600L695 485Z" fill="#00152b" stroke="#000000"></path><path d="M900 426L900 275L838 273Z" fill="#16324b" stroke="#000000"></path><path d="M900 166L821 114L768 232Z" fill="#001b31" stroke="#000000"></path><path d="M821 114L777 0L713 68Z" fill="#000000" stroke="#000000"></path><path d="M766 600L822 504L695 485Z" fill="#0e2c45" stroke="#000000"></path><path d="M0 516L0 600L70 600Z" fill="#001b31" stroke="#000000"></path><path d="M708 600L766 600L695 485Z" fill="#243f59" stroke="#000000"></path><path d="M900 426L838 273L773 388Z" fill="#2b4560" stroke="#000000"></path><path d="M838 273L900 166L768 232Z" fill="#243f59" stroke="#000000"></path><path d="M821 114L900 0L777 0Z" fill="#1d3852" stroke="#000000"></path><path d="M900 275L900 166L838 273Z" fill="#243f59" stroke="#000000"></path><path d="M900 166L900 123L821 114Z" fill="#243f59" stroke="#000000"></path><path d="M900 512L900 426L822 504Z" fill="#000d25" stroke="#000000"></path><path d="M822 504L900 426L773 388Z" fill="#05263e" stroke="#000000"></path><path d="M900 600L900 512L822 504Z" fill="#1d3852" stroke="#000000"></path><path d="M900 123L900 0L821 114Z" fill="#05263e" stroke="#000000"></path><path d="M766 600L900 600L822 504Z" fill="#00152b" stroke="#000000"></path></g></svg>