<svg id="visual" viewBox="0 0 900 600" width="900" height="600" xmlns="http://www.w3.org/2000/svg" xmlns:xlink="http://www.w3.org/1999/xlink" version="1.1"><g stroke-width="5" stroke-linejoin="bevel"><path d="M425 263L361 226L309 277Z" fill="#fffbe8" stroke="#ffffff"></path><path d="M309 277L408 387L425 263Z" fill="#fff8d1" stroke="#ffffff"></path><path d="M408 387L464 379L425 263Z" fill="#fff3ae" stroke="#ffffff"></path><path d="M464 379L511 317L425 263Z" fill="#fffbe8" stroke="#ffffff"></path><path d="M309 277L278 405L408 387Z" fill="#fff1a2" stroke="#ffffff"></path><path d="M511 317L518 230L425 263Z" fill="#fff8d1" stroke="#ffffff"></path><path d="M425 263L518 230L361 226Z" fill="#ffffff" stroke="#ffffff"></path><path d="M312 103L265 164L361 226Z" fill="#fff6c5" stroke="#ffffff"></path><path d="M361 226L265 164L309 277Z" fill="#fff4b9" stroke="#ffffff"></path><path d="M309 277L199 328L278 405Z" fill="#fff3ae" stroke="#ffffff"></path><path d="M265 164L199 328L309 277Z" fill="#fff1a2" stroke="#ffffff"></path><path d="M166 475L308 463L278 405Z" fill="#fff1a2" stroke="#ffffff"></path><path d="M278 405L308 463L408 387Z" fill="#fff4b9" stroke="#ffffff"></path><path d="M408 387L392 486L464 379Z" fill="#fff6c5" stroke="#ffffff"></path><path d="M380 70L312 103L361 226Z" fill="#fff4b9" stroke="#ffffff"></path><path d="M199 328L189 371L278 405Z" fill="#fffdf3" stroke="#ffffff"></path><path d="M308 463L392 486L408 387Z" fill="#fffadc" stroke="#ffffff"></path><path d="M587 377L596 296L511 317Z" fill="#ffef96" stroke="#ffffff"></path><path d="M512 82L380 70L361 226Z" fill="#fffdf3" stroke="#ffffff"></path><path d="M177 85L176 169L265 164Z" fill="#fffdf3" stroke="#ffffff"></path><path d="M265 164L176 169L199 328Z" fill="#fff8d1" stroke="#ffffff"></path><path d="M199 328L101 363L189 371Z" fill="#fff4b9" stroke="#ffffff"></path><path d="M587 377L511 317L464 379Z" fill="#ffed8a" stroke="#ffffff"></path><path d="M511 317L596 296L518 230Z" fill="#ffef96" stroke="#ffffff"></path><path d="M518 230L512 82L361 226Z" fill="#fff8d1" stroke="#ffffff"></path><path d="M519 513L587 377L464 379Z" fill="#fff6c5" stroke="#ffffff"></path><path d="M603 168L512 82L518 230Z" fill="#ffed8a" stroke="#ffffff"></path><path d="M596 296L603 168L518 230Z" fill="#fffdf3" stroke="#ffffff"></path><path d="M392 486L519 513L464 379Z" fill="#fffbe8" stroke="#ffffff"></path><path d="M189 371L166 475L278 405Z" fill="#fffbe8" stroke="#ffffff"></path><path d="M279 600L399 600L392 486Z" fill="#ffef96" stroke="#ffffff"></path><path d="M392 486L399 600L519 513Z" fill="#fff3ae" stroke="#ffffff"></path><path d="M101 363L166 475L189 371Z" fill="#fff6c5" stroke="#ffffff"></path><path d="M206 0L177 85L312 103Z" fill="#fffadc" stroke="#ffffff"></path><path d="M312 103L177 85L265 164Z" fill="#fff1a2" stroke="#ffffff"></path><path d="M62 287L101 363L199 328Z" fill="#fff6c5" stroke="#ffffff"></path><path d="M90 236L199 328L176 169Z" fill="#fffbe8" stroke="#ffffff"></path><path d="M121 127L90 236L176 169Z" fill="#fffadc" stroke="#ffffff"></path><path d="M512 82L396 0L380 70Z" fill="#fffbe8" stroke="#ffffff"></path><path d="M380 70L330 0L312 103Z" fill="#fff1a2" stroke="#ffffff"></path><path d="M603 168L578 88L512 82Z" fill="#fff6c5" stroke="#ffffff"></path><path d="M512 82L503 0L396 0Z" fill="#ffef96" stroke="#ffffff"></path><path d="M396 0L330 0L380 70Z" fill="#fff6c5" stroke="#ffffff"></path><path d="M177 85L121 127L176 169Z" fill="#fffadc" stroke="#ffffff"></path><path d="M519 513L602 482L587 377Z" fill="#fff8d1" stroke="#ffffff"></path><path d="M587 377L719 338L596 296Z" fill="#fff6c5" stroke="#ffffff"></path><path d="M596 296L718 171L603 168Z" fill="#fff4b9" stroke="#ffffff"></path><path d="M90 236L62 287L199 328Z" fill="#ffffff" stroke="#ffffff"></path><path d="M0 336L62 287L0 170Z" fill="#fffdf3" stroke="#ffffff"></path><path d="M279 600L392 486L308 463Z" fill="#fff1a2" stroke="#ffffff"></path><path d="M519 513L611 600L602 482Z" fill="#ffffff" stroke="#ffffff"></path><path d="M578 88L503 0L512 82Z" fill="#fff4b9" stroke="#ffffff"></path><path d="M236 600L279 600L308 463Z" fill="#fff8d1" stroke="#ffffff"></path><path d="M330 0L206 0L312 103Z" fill="#ffed8a" stroke="#ffffff"></path><path d="M177 85L73 0L121 127Z" fill="#ffef96" stroke="#ffffff"></path><path d="M105 600L236 600L166 475Z" fill="#fff3ae" stroke="#ffffff"></path><path d="M166 475L236 600L308 463Z" fill="#ffed8a" stroke="#ffffff"></path><path d="M399 600L513 600L519 513Z" fill="#ffef96" stroke="#ffffff"></path><path d="M663 488L587 377L602 482Z" fill="#fff6c5" stroke="#ffffff"></path><path d="M724 430L719 338L587 377Z" fill="#ffed8a" stroke="#ffffff"></path><path d="M603 168L664 88L578 88Z" fill="#ffed8a" stroke="#ffffff"></path><path d="M718 171L664 88L603 168Z" fill="#fff8d1" stroke="#ffffff"></path><path d="M578 88L622 0L503 0Z" fill="#fff8d1" stroke="#ffffff"></path><path d="M611 600L663 488L602 482Z" fill="#ffffff" stroke="#ffffff"></path><path d="M719 338L718 171L596 296Z" fill="#fff1a2" stroke="#ffffff"></path><path d="M62 287L0 336L101 363Z" fill="#fff1a2" stroke="#ffffff"></path><path d="M101 363L63 512L166 475Z" fill="#ffed8a" stroke="#ffffff"></path><path d="M0 170L62 287L90 236Z" fill="#fffdf3" stroke="#ffffff"></path><path d="M0 336L0 362L101 363Z" fill="#fff6c5" stroke="#ffffff"></path><path d="M0 362L63 512L101 363Z" fill="#fff6c5" stroke="#ffffff"></path><path d="M701 0L622 0L664 88Z" fill="#fff3ae" stroke="#ffffff"></path><path d="M664 88L622 0L578 88Z" fill="#fff8d1" stroke="#ffffff"></path><path d="M663 488L724 430L587 377Z" fill="#ffffff" stroke="#ffffff"></path><path d="M719 338L777 274L718 171Z" fill="#fff6c5" stroke="#ffffff"></path><path d="M0 100L0 170L121 127Z" fill="#fffdf3" stroke="#ffffff"></path><path d="M121 127L0 170L90 236Z" fill="#fff1a2" stroke="#ffffff"></path><path d="M513 600L611 600L519 513Z" fill="#fffadc" stroke="#ffffff"></path><path d="M663 488L802 521L724 430Z" fill="#fff8d1" stroke="#ffffff"></path><path d="M778 360L777 274L719 338Z" fill="#ffffff" stroke="#ffffff"></path><path d="M801 96L701 0L664 88Z" fill="#fffdf3" stroke="#ffffff"></path><path d="M63 512L105 600L166 475Z" fill="#fffdf3" stroke="#ffffff"></path><path d="M206 0L73 0L177 85Z" fill="#fff6c5" stroke="#ffffff"></path><path d="M73 0L0 100L121 127Z" fill="#fffadc" stroke="#ffffff"></path><path d="M724 430L778 360L719 338Z" fill="#ffef96" stroke="#ffffff"></path><path d="M802 521L778 360L724 430Z" fill="#fffbe8" stroke="#ffffff"></path><path d="M0 362L0 513L63 512Z" fill="#ffffff" stroke="#ffffff"></path><path d="M63 512L0 600L105 600Z" fill="#fff4b9" stroke="#ffffff"></path><path d="M801 96L664 88L718 171Z" fill="#fffdf3" stroke="#ffffff"></path><path d="M900 328L822 193L777 274Z" fill="#fff1a2" stroke="#ffffff"></path><path d="M777 274L822 193L718 171Z" fill="#fff1a2" stroke="#ffffff"></path><path d="M73 0L0 0L0 100Z" fill="#ffed8a" stroke="#ffffff"></path><path d="M822 193L801 96L718 171Z" fill="#fff1a2" stroke="#ffffff"></path><path d="M0 513L0 600L63 512Z" fill="#fff3ae" stroke="#ffffff"></path><path d="M611 600L739 600L663 488Z" fill="#ffffff" stroke="#ffffff"></path><path d="M778 360L900 328L777 274Z" fill="#fffbe8" stroke="#ffffff"></path><path d="M739 600L802 521L663 488Z" fill="#ffffff" stroke="#ffffff"></path><path d="M900 0L791 0L801 96Z" fill="#fff4b9" stroke="#ffffff"></path><path d="M801 96L791 0L701 0Z" fill="#fff3ae" stroke="#ffffff"></path><path d="M900 424L900 328L778 360Z" fill="#ffed8a" stroke="#ffffff"></path><path d="M822 193L900 102L801 96Z" fill="#fffbe8" stroke="#ffffff"></path><path d="M739 600L802 600L802 521Z" fill="#ffef96" stroke="#ffffff"></path><path d="M802 521L900 424L778 360Z" fill="#fff4b9" stroke="#ffffff"></path><path d="M900 328L900 174L822 193Z" fill="#fff6c5" stroke="#ffffff"></path><path d="M900 523L900 424L802 521Z" fill="#fff8d1" stroke="#ffffff"></path><path d="M900 174L900 102L822 193Z" fill="#fff6c5" stroke="#ffffff"></path><path d="M802 600L900 523L802 521Z" fill="#fff4b9" stroke="#ffffff"></path><path d="M900 102L900 0L801 96Z" fill="#fff3ae" stroke="#ffffff"></path><path d="M802 600L900 600L900 523Z" fill="#fffdf3" stroke="#ffffff"></path></g></svg>