<svg id="visual" viewBox="0 0 900 600" width="900" height="600" xmlns="http://www.w3.org/2000/svg" xmlns:xlink="http://www.w3.org/1999/xlink" version="1.1"><g stroke-width="5" stroke-linejoin="bevel"><path d="M441 289L424 244L421 298Z" fill="#c4bfbf" stroke="#ffffff"></path><path d="M424 244L386 267L421 298Z" fill="#cac5c5" stroke="#ffffff"></path><path d="M424 244L373 257L386 267Z" fill="#dbd9d9" stroke="#ffffff"></path><path d="M359 321L412 331L421 298Z" fill="#d0cccc" stroke="#ffffff"></path><path d="M524 254L436 216L424 244Z" fill="#cac5c5" stroke="#ffffff"></path><path d="M424 244L406 206L373 257Z" fill="#c4bfbf" stroke="#ffffff"></path><path d="M359 321L421 298L386 267Z" fill="#e7e5e5" stroke="#ffffff"></path><path d="M421 298L412 331L441 289Z" fill="#f3f2f2" stroke="#ffffff"></path><path d="M436 216L406 206L424 244Z" fill="#f3f2f2" stroke="#ffffff"></path><path d="M373 257L359 321L386 267Z" fill="#edecec" stroke="#ffffff"></path><path d="M436 216L417 176L406 206Z" fill="#edecec" stroke="#ffffff"></path><path d="M324 205L323 226L373 257Z" fill="#e1dfdf" stroke="#ffffff"></path><path d="M519 323L523 273L441 289Z" fill="#e1dfdf" stroke="#ffffff"></path><path d="M441 289L524 254L424 244Z" fill="#e1dfdf" stroke="#ffffff"></path><path d="M436 216L470 173L417 176Z" fill="#f9f9f9" stroke="#ffffff"></path><path d="M393 376L433 374L412 331Z" fill="#ffffff" stroke="#ffffff"></path><path d="M412 331L433 374L441 289Z" fill="#c4bfbf" stroke="#ffffff"></path><path d="M523 273L524 254L441 289Z" fill="#d5d2d2" stroke="#ffffff"></path><path d="M324 205L373 257L406 206Z" fill="#edecec" stroke="#ffffff"></path><path d="M373 257L284 269L359 321Z" fill="#d0cccc" stroke="#ffffff"></path><path d="M358 360L393 376L412 331Z" fill="#edecec" stroke="#ffffff"></path><path d="M305 351L358 360L359 321Z" fill="#edecec" stroke="#ffffff"></path><path d="M359 321L358 360L412 331Z" fill="#e1dfdf" stroke="#ffffff"></path><path d="M488 184L470 173L436 216Z" fill="#dbd9d9" stroke="#ffffff"></path><path d="M524 254L488 184L436 216Z" fill="#f9f9f9" stroke="#ffffff"></path><path d="M404 110L375 171L417 176Z" fill="#d0cccc" stroke="#ffffff"></path><path d="M417 176L375 171L406 206Z" fill="#d5d2d2" stroke="#ffffff"></path><path d="M433 374L519 323L441 289Z" fill="#cac5c5" stroke="#ffffff"></path><path d="M594 263L532 235L524 254Z" fill="#e7e5e5" stroke="#ffffff"></path><path d="M524 254L532 235L488 184Z" fill="#cac5c5" stroke="#ffffff"></path><path d="M594 263L524 254L523 273Z" fill="#ffffff" stroke="#ffffff"></path><path d="M375 171L324 205L406 206Z" fill="#dbd9d9" stroke="#ffffff"></path><path d="M453 438L473 390L433 374Z" fill="#ffffff" stroke="#ffffff"></path><path d="M433 374L473 390L519 323Z" fill="#ffffff" stroke="#ffffff"></path><path d="M473 390L515 367L519 323Z" fill="#f3f2f2" stroke="#ffffff"></path><path d="M597 326L594 263L523 273Z" fill="#c4bfbf" stroke="#ffffff"></path><path d="M238 232L284 269L323 226Z" fill="#dbd9d9" stroke="#ffffff"></path><path d="M323 226L284 269L373 257Z" fill="#d5d2d2" stroke="#ffffff"></path><path d="M274 291L305 351L359 321Z" fill="#d0cccc" stroke="#ffffff"></path><path d="M358 360L328 412L393 376Z" fill="#cac5c5" stroke="#ffffff"></path><path d="M284 269L274 291L359 321Z" fill="#f3f2f2" stroke="#ffffff"></path><path d="M488 184L481 132L470 173Z" fill="#e7e5e5" stroke="#ffffff"></path><path d="M470 173L465 126L417 176Z" fill="#edecec" stroke="#ffffff"></path><path d="M552 120L481 132L488 184Z" fill="#d0cccc" stroke="#ffffff"></path><path d="M481 132L465 126L470 173Z" fill="#d5d2d2" stroke="#ffffff"></path><path d="M375 171L297 176L324 205Z" fill="#cac5c5" stroke="#ffffff"></path><path d="M324 205L297 176L323 226Z" fill="#c4bfbf" stroke="#ffffff"></path><path d="M284 269L232 277L274 291Z" fill="#e1dfdf" stroke="#ffffff"></path><path d="M301 83L297 176L375 171Z" fill="#d5d2d2" stroke="#ffffff"></path><path d="M465 126L404 110L417 176Z" fill="#e1dfdf" stroke="#ffffff"></path><path d="M566 412L560 355L515 367Z" fill="#cac5c5" stroke="#ffffff"></path><path d="M515 367L560 355L519 323Z" fill="#dbd9d9" stroke="#ffffff"></path><path d="M594 263L562 180L532 235Z" fill="#c4bfbf" stroke="#ffffff"></path><path d="M532 235L562 180L488 184Z" fill="#ffffff" stroke="#ffffff"></path><path d="M310 414L328 412L305 351Z" fill="#d0cccc" stroke="#ffffff"></path><path d="M305 351L328 412L358 360Z" fill="#ffffff" stroke="#ffffff"></path><path d="M413 442L453 438L433 374Z" fill="#e1dfdf" stroke="#ffffff"></path><path d="M413 442L433 374L393 376Z" fill="#dbd9d9" stroke="#ffffff"></path><path d="M473 390L526 416L515 367Z" fill="#d5d2d2" stroke="#ffffff"></path><path d="M328 412L413 442L393 376Z" fill="#c4bfbf" stroke="#ffffff"></path><path d="M597 326L523 273L519 323Z" fill="#dbd9d9" stroke="#ffffff"></path><path d="M552 120L484 108L481 132Z" fill="#ffffff" stroke="#ffffff"></path><path d="M481 132L484 108L465 126Z" fill="#cac5c5" stroke="#ffffff"></path><path d="M465 126L484 75L404 110Z" fill="#cac5c5" stroke="#ffffff"></path><path d="M477 446L526 416L473 390Z" fill="#ffffff" stroke="#ffffff"></path><path d="M272 389L310 414L305 351Z" fill="#c4bfbf" stroke="#ffffff"></path><path d="M328 412L370 473L413 442Z" fill="#f3f2f2" stroke="#ffffff"></path><path d="M487 490L477 446L444 500Z" fill="#dbd9d9" stroke="#ffffff"></path><path d="M453 438L477 446L473 390Z" fill="#c4bfbf" stroke="#ffffff"></path><path d="M603 359L597 326L560 355Z" fill="#dbd9d9" stroke="#ffffff"></path><path d="M560 355L597 326L519 323Z" fill="#d5d2d2" stroke="#ffffff"></path><path d="M602 153L570 159L562 180Z" fill="#e1dfdf" stroke="#ffffff"></path><path d="M562 180L552 120L488 184Z" fill="#e1dfdf" stroke="#ffffff"></path><path d="M297 176L238 232L323 226Z" fill="#cac5c5" stroke="#ffffff"></path><path d="M235 331L272 389L305 351Z" fill="#dbd9d9" stroke="#ffffff"></path><path d="M238 232L232 277L284 269Z" fill="#d0cccc" stroke="#ffffff"></path><path d="M235 331L305 351L274 291Z" fill="#d5d2d2" stroke="#ffffff"></path><path d="M405 58L373 85L404 110Z" fill="#d5d2d2" stroke="#ffffff"></path><path d="M404 110L373 85L375 171Z" fill="#d5d2d2" stroke="#ffffff"></path><path d="M297 176L235 190L238 232Z" fill="#e7e5e5" stroke="#ffffff"></path><path d="M238 232L226 271L232 277Z" fill="#c4bfbf" stroke="#ffffff"></path><path d="M232 277L235 331L274 291Z" fill="#dbd9d9" stroke="#ffffff"></path><path d="M193 324L235 331L232 277Z" fill="#d0cccc" stroke="#ffffff"></path><path d="M570 159L552 120L562 180Z" fill="#f9f9f9" stroke="#ffffff"></path><path d="M484 108L484 75L465 126Z" fill="#dbd9d9" stroke="#ffffff"></path><path d="M301 83L250 163L297 176Z" fill="#cac5c5" stroke="#ffffff"></path><path d="M238 232L163 240L226 271Z" fill="#edecec" stroke="#ffffff"></path><path d="M566 412L603 359L560 355Z" fill="#dbd9d9" stroke="#ffffff"></path><path d="M641 233L623 213L594 263Z" fill="#d0cccc" stroke="#ffffff"></path><path d="M526 416L566 412L515 367Z" fill="#f9f9f9" stroke="#ffffff"></path><path d="M544 446L566 412L526 416Z" fill="#c4bfbf" stroke="#ffffff"></path><path d="M250 163L235 190L297 176Z" fill="#ffffff" stroke="#ffffff"></path><path d="M552 120L484 75L484 108Z" fill="#e7e5e5" stroke="#ffffff"></path><path d="M365 478L370 473L328 412Z" fill="#edecec" stroke="#ffffff"></path><path d="M413 442L444 500L453 438Z" fill="#edecec" stroke="#ffffff"></path><path d="M365 478L328 412L286 467Z" fill="#c4bfbf" stroke="#ffffff"></path><path d="M370 473L393 479L413 442Z" fill="#edecec" stroke="#ffffff"></path><path d="M477 446L544 446L526 416Z" fill="#d0cccc" stroke="#ffffff"></path><path d="M641 233L594 263L663 298Z" fill="#f3f2f2" stroke="#ffffff"></path><path d="M594 263L623 213L562 180Z" fill="#ffffff" stroke="#ffffff"></path><path d="M570 159L579 106L552 120Z" fill="#ffffff" stroke="#ffffff"></path><path d="M484 75L405 58L404 110Z" fill="#ffffff" stroke="#ffffff"></path><path d="M373 85L301 83L375 171Z" fill="#e1dfdf" stroke="#ffffff"></path><path d="M487 490L544 446L477 446Z" fill="#d5d2d2" stroke="#ffffff"></path><path d="M613 402L638 343L603 359Z" fill="#ffffff" stroke="#ffffff"></path><path d="M370 473L365 478L393 479Z" fill="#e1dfdf" stroke="#ffffff"></path><path d="M286 467L328 412L310 414Z" fill="#f3f2f2" stroke="#ffffff"></path><path d="M630 197L602 153L562 180Z" fill="#e1dfdf" stroke="#ffffff"></path><path d="M552 120L557 57L484 75Z" fill="#e1dfdf" stroke="#ffffff"></path><path d="M228 118L223 178L250 163Z" fill="#d5d2d2" stroke="#ffffff"></path><path d="M250 163L223 178L235 190Z" fill="#f9f9f9" stroke="#ffffff"></path><path d="M235 190L167 190L238 232Z" fill="#dbd9d9" stroke="#ffffff"></path><path d="M623 213L630 197L562 180Z" fill="#ffffff" stroke="#ffffff"></path><path d="M641 233L630 197L623 213Z" fill="#ffffff" stroke="#ffffff"></path><path d="M343 42L301 83L373 85Z" fill="#ffffff" stroke="#ffffff"></path><path d="M663 298L594 263L597 326Z" fill="#ffffff" stroke="#ffffff"></path><path d="M585 53L579 106L670 100Z" fill="#d0cccc" stroke="#ffffff"></path><path d="M602 153L579 106L570 159Z" fill="#e1dfdf" stroke="#ffffff"></path><path d="M613 402L603 359L566 412Z" fill="#d5d2d2" stroke="#ffffff"></path><path d="M603 359L638 343L597 326Z" fill="#f3f2f2" stroke="#ffffff"></path><path d="M444 500L413 442L393 479Z" fill="#edecec" stroke="#ffffff"></path><path d="M444 500L477 446L453 438Z" fill="#e1dfdf" stroke="#ffffff"></path><path d="M391 540L444 500L393 479Z" fill="#f9f9f9" stroke="#ffffff"></path><path d="M589 461L566 412L544 446Z" fill="#dbd9d9" stroke="#ffffff"></path><path d="M589 461L613 402L566 412Z" fill="#ffffff" stroke="#ffffff"></path><path d="M187 419L274 453L272 389Z" fill="#ffffff" stroke="#ffffff"></path><path d="M272 389L274 453L310 414Z" fill="#e1dfdf" stroke="#ffffff"></path><path d="M365 478L391 540L393 479Z" fill="#d5d2d2" stroke="#ffffff"></path><path d="M226 271L193 324L232 277Z" fill="#edecec" stroke="#ffffff"></path><path d="M235 331L187 419L272 389Z" fill="#cac5c5" stroke="#ffffff"></path><path d="M139 287L193 324L226 271Z" fill="#ffffff" stroke="#ffffff"></path><path d="M274 453L286 467L310 414Z" fill="#ffffff" stroke="#ffffff"></path><path d="M503 0L460 35L484 75Z" fill="#cac5c5" stroke="#ffffff"></path><path d="M484 75L460 35L405 58Z" fill="#d5d2d2" stroke="#ffffff"></path><path d="M405 58L343 42L373 85Z" fill="#cac5c5" stroke="#ffffff"></path><path d="M369 0L343 42L405 58Z" fill="#d5d2d2" stroke="#ffffff"></path><path d="M717 327L663 298L638 343Z" fill="#f9f9f9" stroke="#ffffff"></path><path d="M638 343L663 298L597 326Z" fill="#edecec" stroke="#ffffff"></path><path d="M718 197L672 137L630 197Z" fill="#dbd9d9" stroke="#ffffff"></path><path d="M301 83L228 118L250 163Z" fill="#d0cccc" stroke="#ffffff"></path><path d="M139 287L176 343L193 324Z" fill="#edecec" stroke="#ffffff"></path><path d="M276 68L228 118L301 83Z" fill="#c4bfbf" stroke="#ffffff"></path><path d="M343 42L276 68L301 83Z" fill="#edecec" stroke="#ffffff"></path><path d="M585 53L557 57L579 106Z" fill="#cac5c5" stroke="#ffffff"></path><path d="M579 106L557 57L552 120Z" fill="#d5d2d2" stroke="#ffffff"></path><path d="M530 512L589 461L544 446Z" fill="#e7e5e5" stroke="#ffffff"></path><path d="M613 402L666 381L638 343Z" fill="#c4bfbf" stroke="#ffffff"></path><path d="M163 240L238 232L167 190Z" fill="#edecec" stroke="#ffffff"></path><path d="M193 324L176 343L235 331Z" fill="#d0cccc" stroke="#ffffff"></path><path d="M264 494L310 506L286 467Z" fill="#ffffff" stroke="#ffffff"></path><path d="M167 190L235 190L223 178Z" fill="#dbd9d9" stroke="#ffffff"></path><path d="M264 494L286 467L274 453Z" fill="#e7e5e5" stroke="#ffffff"></path><path d="M286 467L310 506L365 478Z" fill="#ffffff" stroke="#ffffff"></path><path d="M276 68L215 107L228 118Z" fill="#dbd9d9" stroke="#ffffff"></path><path d="M228 118L173 153L223 178Z" fill="#e1dfdf" stroke="#ffffff"></path><path d="M487 490L530 512L544 446Z" fill="#f3f2f2" stroke="#ffffff"></path><path d="M459 548L530 512L487 490Z" fill="#e1dfdf" stroke="#ffffff"></path><path d="M459 548L487 490L444 500Z" fill="#dbd9d9" stroke="#ffffff"></path><path d="M173 153L167 190L223 178Z" fill="#c4bfbf" stroke="#ffffff"></path><path d="M642 431L666 381L613 402Z" fill="#c4bfbf" stroke="#ffffff"></path><path d="M310 506L391 540L365 478Z" fill="#f9f9f9" stroke="#ffffff"></path><path d="M466 0L418 0L460 35Z" fill="#dbd9d9" stroke="#ffffff"></path><path d="M460 35L418 0L405 58Z" fill="#edecec" stroke="#ffffff"></path><path d="M227 32L225 38L276 68Z" fill="#dbd9d9" stroke="#ffffff"></path><path d="M201 483L264 494L274 453Z" fill="#d5d2d2" stroke="#ffffff"></path><path d="M310 506L375 563L391 540Z" fill="#e1dfdf" stroke="#ffffff"></path><path d="M670 100L579 106L602 153Z" fill="#d0cccc" stroke="#ffffff"></path><path d="M503 0L466 0L460 35Z" fill="#f3f2f2" stroke="#ffffff"></path><path d="M672 137L602 153L630 197Z" fill="#f3f2f2" stroke="#ffffff"></path><path d="M589 461L642 431L613 402Z" fill="#c4bfbf" stroke="#ffffff"></path><path d="M635 479L642 431L589 461Z" fill="#e1dfdf" stroke="#ffffff"></path><path d="M215 107L173 153L228 118Z" fill="#f9f9f9" stroke="#ffffff"></path><path d="M503 0L484 75L557 57Z" fill="#f3f2f2" stroke="#ffffff"></path><path d="M418 0L369 0L405 58Z" fill="#e1dfdf" stroke="#ffffff"></path><path d="M276 68L225 38L215 107Z" fill="#f3f2f2" stroke="#ffffff"></path><path d="M176 343L187 419L235 331Z" fill="#e7e5e5" stroke="#ffffff"></path><path d="M391 540L459 548L444 500Z" fill="#f9f9f9" stroke="#ffffff"></path><path d="M717 327L700 289L663 298Z" fill="#edecec" stroke="#ffffff"></path><path d="M663 298L700 289L641 233Z" fill="#d0cccc" stroke="#ffffff"></path><path d="M163 240L139 287L226 271Z" fill="#d0cccc" stroke="#ffffff"></path><path d="M176 343L142 370L187 419Z" fill="#cac5c5" stroke="#ffffff"></path><path d="M120 236L139 287L163 240Z" fill="#e1dfdf" stroke="#ffffff"></path><path d="M120 236L163 240L167 190Z" fill="#dbd9d9" stroke="#ffffff"></path><path d="M559 0L503 0L557 57Z" fill="#c4bfbf" stroke="#ffffff"></path><path d="M718 197L630 197L641 233Z" fill="#edecec" stroke="#ffffff"></path><path d="M483 571L551 529L530 512Z" fill="#dbd9d9" stroke="#ffffff"></path><path d="M530 512L579 517L589 461Z" fill="#edecec" stroke="#ffffff"></path><path d="M551 529L579 517L530 512Z" fill="#e7e5e5" stroke="#ffffff"></path><path d="M302 544L375 563L310 506Z" fill="#e7e5e5" stroke="#ffffff"></path><path d="M391 540L439 600L459 548Z" fill="#cac5c5" stroke="#ffffff"></path><path d="M139 287L142 370L176 343Z" fill="#d5d2d2" stroke="#ffffff"></path><path d="M268 541L310 506L264 494Z" fill="#e1dfdf" stroke="#ffffff"></path><path d="M268 541L302 544L310 506Z" fill="#c4bfbf" stroke="#ffffff"></path><path d="M642 431L686 433L666 381Z" fill="#edecec" stroke="#ffffff"></path><path d="M666 381L717 327L638 343Z" fill="#c4bfbf" stroke="#ffffff"></path><path d="M579 517L635 479L589 461Z" fill="#f3f2f2" stroke="#ffffff"></path><path d="M709 395L717 327L666 381Z" fill="#e1dfdf" stroke="#ffffff"></path><path d="M700 289L721 225L641 233Z" fill="#d5d2d2" stroke="#ffffff"></path><path d="M142 370L139 378L187 419Z" fill="#edecec" stroke="#ffffff"></path><path d="M187 419L201 483L274 453Z" fill="#ffffff" stroke="#ffffff"></path><path d="M100 374L139 378L142 370Z" fill="#d0cccc" stroke="#ffffff"></path><path d="M691 124L670 100L672 137Z" fill="#e7e5e5" stroke="#ffffff"></path><path d="M672 137L670 100L602 153Z" fill="#f9f9f9" stroke="#ffffff"></path><path d="M585 53L559 0L557 57Z" fill="#c4bfbf" stroke="#ffffff"></path><path d="M85 183L120 236L167 190Z" fill="#cac5c5" stroke="#ffffff"></path><path d="M71 332L100 374L142 370Z" fill="#f9f9f9" stroke="#ffffff"></path><path d="M740 226L721 225L700 289Z" fill="#f9f9f9" stroke="#ffffff"></path><path d="M610 0L559 0L585 53Z" fill="#edecec" stroke="#ffffff"></path><path d="M282 0L276 68L343 42Z" fill="#c4bfbf" stroke="#ffffff"></path><path d="M215 107L150 123L173 153Z" fill="#ffffff" stroke="#ffffff"></path><path d="M173 153L125 131L167 190Z" fill="#edecec" stroke="#ffffff"></path><path d="M369 0L282 0L343 42Z" fill="#e7e5e5" stroke="#ffffff"></path><path d="M179 470L201 483L187 419Z" fill="#ffffff" stroke="#ffffff"></path><path d="M721 225L718 197L641 233Z" fill="#ffffff" stroke="#ffffff"></path><path d="M439 600L483 571L459 548Z" fill="#f3f2f2" stroke="#ffffff"></path><path d="M459 548L483 571L530 512Z" fill="#d5d2d2" stroke="#ffffff"></path><path d="M551 529L612 547L579 517Z" fill="#d0cccc" stroke="#ffffff"></path><path d="M700 124L691 124L672 137Z" fill="#ffffff" stroke="#ffffff"></path><path d="M261 0L227 32L276 68Z" fill="#f3f2f2" stroke="#ffffff"></path><path d="M165 44L150 123L215 107Z" fill="#edecec" stroke="#ffffff"></path><path d="M125 131L150 123L113 75Z" fill="#edecec" stroke="#ffffff"></path><path d="M224 529L268 541L264 494Z" fill="#f9f9f9" stroke="#ffffff"></path><path d="M375 600L439 600L375 563Z" fill="#e7e5e5" stroke="#ffffff"></path><path d="M635 479L686 433L642 431Z" fill="#cac5c5" stroke="#ffffff"></path><path d="M147 460L179 470L187 419Z" fill="#e1dfdf" stroke="#ffffff"></path><path d="M201 483L224 529L264 494Z" fill="#e1dfdf" stroke="#ffffff"></path><path d="M686 433L709 395L666 381Z" fill="#d5d2d2" stroke="#ffffff"></path><path d="M282 0L261 0L276 68Z" fill="#c4bfbf" stroke="#ffffff"></path><path d="M718 197L700 124L672 137Z" fill="#f9f9f9" stroke="#ffffff"></path><path d="M691 124L700 124L670 100Z" fill="#f9f9f9" stroke="#ffffff"></path><path d="M670 100L631 31L585 53Z" fill="#d5d2d2" stroke="#ffffff"></path><path d="M634 0L631 31L718 0Z" fill="#dbd9d9" stroke="#ffffff"></path><path d="M721 225L740 226L718 197Z" fill="#f3f2f2" stroke="#ffffff"></path><path d="M718 197L763 148L700 124Z" fill="#d5d2d2" stroke="#ffffff"></path><path d="M744 299L740 226L700 289Z" fill="#d0cccc" stroke="#ffffff"></path><path d="M744 299L700 289L717 327Z" fill="#f3f2f2" stroke="#ffffff"></path><path d="M778 325L744 299L717 327Z" fill="#f3f2f2" stroke="#ffffff"></path><path d="M144 517L224 529L201 483Z" fill="#cac5c5" stroke="#ffffff"></path><path d="M165 44L215 107L225 38Z" fill="#d0cccc" stroke="#ffffff"></path><path d="M150 123L125 131L173 153Z" fill="#d5d2d2" stroke="#ffffff"></path><path d="M375 563L439 600L391 540Z" fill="#dbd9d9" stroke="#ffffff"></path><path d="M587 600L612 547L551 529Z" fill="#e7e5e5" stroke="#ffffff"></path><path d="M375 600L375 563L336 600Z" fill="#edecec" stroke="#ffffff"></path><path d="M375 563L302 544L336 600Z" fill="#e1dfdf" stroke="#ffffff"></path><path d="M634 0L610 0L631 31Z" fill="#e7e5e5" stroke="#ffffff"></path><path d="M631 31L610 0L585 53Z" fill="#f9f9f9" stroke="#ffffff"></path><path d="M336 600L302 544L308 600Z" fill="#e7e5e5" stroke="#ffffff"></path><path d="M139 378L147 460L187 419Z" fill="#d0cccc" stroke="#ffffff"></path><path d="M179 470L144 517L201 483Z" fill="#e7e5e5" stroke="#ffffff"></path><path d="M78 418L147 460L139 378Z" fill="#f9f9f9" stroke="#ffffff"></path><path d="M518 600L551 529L483 571Z" fill="#f9f9f9" stroke="#ffffff"></path><path d="M579 517L612 547L635 479Z" fill="#e1dfdf" stroke="#ffffff"></path><path d="M635 479L688 499L686 433Z" fill="#d0cccc" stroke="#ffffff"></path><path d="M84 299L139 287L120 236Z" fill="#e7e5e5" stroke="#ffffff"></path><path d="M84 299L142 370L139 287Z" fill="#e7e5e5" stroke="#ffffff"></path><path d="M71 238L84 299L120 236Z" fill="#cac5c5" stroke="#ffffff"></path><path d="M308 600L302 544L267 600Z" fill="#dbd9d9" stroke="#ffffff"></path><path d="M212 0L165 44L225 38Z" fill="#edecec" stroke="#ffffff"></path><path d="M212 0L225 38L227 32Z" fill="#dbd9d9" stroke="#ffffff"></path><path d="M261 0L212 0L227 32Z" fill="#ffffff" stroke="#ffffff"></path><path d="M439 600L518 600L483 571Z" fill="#e1dfdf" stroke="#ffffff"></path><path d="M723 45L631 31L670 100Z" fill="#e7e5e5" stroke="#ffffff"></path><path d="M92 132L85 183L125 131Z" fill="#c4bfbf" stroke="#ffffff"></path><path d="M125 131L85 183L167 190Z" fill="#f9f9f9" stroke="#ffffff"></path><path d="M267 600L302 544L268 541Z" fill="#edecec" stroke="#ffffff"></path><path d="M686 433L763 422L709 395Z" fill="#edecec" stroke="#ffffff"></path><path d="M709 395L761 365L717 327Z" fill="#e1dfdf" stroke="#ffffff"></path><path d="M658 563L688 499L635 479Z" fill="#ffffff" stroke="#ffffff"></path><path d="M85 183L71 238L120 236Z" fill="#dbd9d9" stroke="#ffffff"></path><path d="M763 422L761 365L709 395Z" fill="#edecec" stroke="#ffffff"></path><path d="M790 217L771 208L792 228Z" fill="#f9f9f9" stroke="#ffffff"></path><path d="M518 600L552 600L551 529Z" fill="#f9f9f9" stroke="#ffffff"></path><path d="M612 547L658 563L635 479Z" fill="#f9f9f9" stroke="#ffffff"></path><path d="M63 307L71 332L84 299Z" fill="#d0cccc" stroke="#ffffff"></path><path d="M84 299L71 332L142 370Z" fill="#e1dfdf" stroke="#ffffff"></path><path d="M93 468L144 517L147 460Z" fill="#ffffff" stroke="#ffffff"></path><path d="M771 208L740 226L792 228Z" fill="#dbd9d9" stroke="#ffffff"></path><path d="M740 226L771 208L718 197Z" fill="#c4bfbf" stroke="#ffffff"></path><path d="M700 124L723 45L670 100Z" fill="#c4bfbf" stroke="#ffffff"></path><path d="M113 75L92 132L125 131Z" fill="#e1dfdf" stroke="#ffffff"></path><path d="M85 183L29 179L71 238Z" fill="#e1dfdf" stroke="#ffffff"></path><path d="M71 238L63 307L84 299Z" fill="#cac5c5" stroke="#ffffff"></path><path d="M761 365L778 325L717 327Z" fill="#cac5c5" stroke="#ffffff"></path><path d="M189 600L267 600L224 529Z" fill="#ffffff" stroke="#ffffff"></path><path d="M224 529L267 600L268 541Z" fill="#cac5c5" stroke="#ffffff"></path><path d="M771 208L763 148L718 197Z" fill="#d0cccc" stroke="#ffffff"></path><path d="M106 39L113 75L165 44Z" fill="#e1dfdf" stroke="#ffffff"></path><path d="M165 44L113 75L150 123Z" fill="#d5d2d2" stroke="#ffffff"></path><path d="M552 600L587 600L551 529Z" fill="#cac5c5" stroke="#ffffff"></path><path d="M78 418L139 378L100 374Z" fill="#cac5c5" stroke="#ffffff"></path><path d="M147 460L144 517L179 470Z" fill="#e7e5e5" stroke="#ffffff"></path><path d="M24 377L78 418L100 374Z" fill="#edecec" stroke="#ffffff"></path><path d="M24 377L100 374L71 332Z" fill="#dbd9d9" stroke="#ffffff"></path><path d="M792 228L740 226L799 282Z" fill="#edecec" stroke="#ffffff"></path><path d="M771 208L807 143L763 148Z" fill="#f9f9f9" stroke="#ffffff"></path><path d="M799 282L740 226L744 299Z" fill="#dbd9d9" stroke="#ffffff"></path><path d="M755 457L763 422L686 433Z" fill="#dbd9d9" stroke="#ffffff"></path><path d="M761 365L824 328L778 325Z" fill="#d5d2d2" stroke="#ffffff"></path><path d="M587 600L658 563L612 547Z" fill="#e1dfdf" stroke="#ffffff"></path><path d="M688 499L755 457L686 433Z" fill="#ffffff" stroke="#ffffff"></path><path d="M775 115L700 124L763 148Z" fill="#d0cccc" stroke="#ffffff"></path><path d="M754 74L723 45L700 124Z" fill="#dbd9d9" stroke="#ffffff"></path><path d="M823 273L799 282L824 328Z" fill="#f9f9f9" stroke="#ffffff"></path><path d="M778 325L799 282L744 299Z" fill="#f9f9f9" stroke="#ffffff"></path><path d="M754 498L755 457L688 499Z" fill="#f9f9f9" stroke="#ffffff"></path><path d="M763 422L785 402L761 365Z" fill="#dbd9d9" stroke="#ffffff"></path><path d="M78 418L93 468L147 460Z" fill="#c4bfbf" stroke="#ffffff"></path><path d="M807 143L775 115L763 148Z" fill="#cac5c5" stroke="#ffffff"></path><path d="M807 143L771 208L790 217Z" fill="#f3f2f2" stroke="#ffffff"></path><path d="M775 115L754 74L700 124Z" fill="#edecec" stroke="#ffffff"></path><path d="M801 428L785 402L763 422Z" fill="#e7e5e5" stroke="#ffffff"></path><path d="M670 600L685 557L658 563Z" fill="#f3f2f2" stroke="#ffffff"></path><path d="M658 563L685 557L688 499Z" fill="#dbd9d9" stroke="#ffffff"></path><path d="M137 0L106 39L165 44Z" fill="#dbd9d9" stroke="#ffffff"></path><path d="M48 109L42 155L92 132Z" fill="#e7e5e5" stroke="#ffffff"></path><path d="M92 132L42 155L85 183Z" fill="#e7e5e5" stroke="#ffffff"></path><path d="M92 508L126 529L144 517Z" fill="#dbd9d9" stroke="#ffffff"></path><path d="M144 517L141 555L224 529Z" fill="#d0cccc" stroke="#ffffff"></path><path d="M212 0L137 0L165 44Z" fill="#c4bfbf" stroke="#ffffff"></path><path d="M72 76L92 132L113 75Z" fill="#edecec" stroke="#ffffff"></path><path d="M71 238L0 255L63 307Z" fill="#dbd9d9" stroke="#ffffff"></path><path d="M0 307L24 377L71 332Z" fill="#edecec" stroke="#ffffff"></path><path d="M126 529L141 555L144 517Z" fill="#cac5c5" stroke="#ffffff"></path><path d="M68 0L72 76L106 39Z" fill="#ffffff" stroke="#ffffff"></path><path d="M106 39L72 76L113 75Z" fill="#ffffff" stroke="#ffffff"></path><path d="M753 27L723 45L754 74Z" fill="#ffffff" stroke="#ffffff"></path><path d="M753 27L718 0L723 45Z" fill="#dbd9d9" stroke="#ffffff"></path><path d="M723 45L718 0L631 31Z" fill="#c4bfbf" stroke="#ffffff"></path><path d="M824 328L799 282L778 325Z" fill="#f9f9f9" stroke="#ffffff"></path><path d="M799 282L823 273L792 228Z" fill="#f3f2f2" stroke="#ffffff"></path><path d="M792 228L833 209L790 217Z" fill="#f9f9f9" stroke="#ffffff"></path><path d="M0 197L29 179L0 162Z" fill="#c4bfbf" stroke="#ffffff"></path><path d="M42 155L29 179L85 183Z" fill="#cac5c5" stroke="#ffffff"></path><path d="M141 555L189 600L224 529Z" fill="#ffffff" stroke="#ffffff"></path><path d="M755 457L801 428L763 422Z" fill="#c4bfbf" stroke="#ffffff"></path><path d="M756 554L754 498L688 499Z" fill="#d5d2d2" stroke="#ffffff"></path><path d="M93 468L92 508L144 517Z" fill="#f9f9f9" stroke="#ffffff"></path><path d="M75 600L127 600L141 555Z" fill="#f3f2f2" stroke="#ffffff"></path><path d="M63 502L92 508L93 468Z" fill="#e1dfdf" stroke="#ffffff"></path><path d="M50 471L93 468L78 418Z" fill="#dbd9d9" stroke="#ffffff"></path><path d="M72 76L48 109L92 132Z" fill="#cac5c5" stroke="#ffffff"></path><path d="M833 209L807 143L790 217Z" fill="#dbd9d9" stroke="#ffffff"></path><path d="M798 41L753 27L754 74Z" fill="#c4bfbf" stroke="#ffffff"></path><path d="M137 0L117 0L106 39Z" fill="#f9f9f9" stroke="#ffffff"></path><path d="M0 109L42 155L48 109Z" fill="#edecec" stroke="#ffffff"></path><path d="M785 402L824 328L761 365Z" fill="#edecec" stroke="#ffffff"></path><path d="M861 413L824 328L785 402Z" fill="#ffffff" stroke="#ffffff"></path><path d="M0 307L71 332L63 307Z" fill="#ffffff" stroke="#ffffff"></path><path d="M812 519L801 428L755 457Z" fill="#e7e5e5" stroke="#ffffff"></path><path d="M798 41L754 74L775 115Z" fill="#cac5c5" stroke="#ffffff"></path><path d="M587 600L670 600L658 563Z" fill="#edecec" stroke="#ffffff"></path><path d="M685 557L756 554L688 499Z" fill="#e1dfdf" stroke="#ffffff"></path><path d="M823 273L833 209L792 228Z" fill="#c4bfbf" stroke="#ffffff"></path><path d="M900 254L833 209L823 273Z" fill="#e7e5e5" stroke="#ffffff"></path><path d="M0 197L71 238L29 179Z" fill="#ffffff" stroke="#ffffff"></path><path d="M0 197L0 255L71 238Z" fill="#dbd9d9" stroke="#ffffff"></path><path d="M0 460L50 471L78 418Z" fill="#d0cccc" stroke="#ffffff"></path><path d="M75 600L141 555L126 529Z" fill="#c4bfbf" stroke="#ffffff"></path><path d="M141 555L127 600L189 600Z" fill="#d5d2d2" stroke="#ffffff"></path><path d="M0 255L0 307L63 307Z" fill="#f9f9f9" stroke="#ffffff"></path><path d="M24 377L0 395L78 418Z" fill="#f3f2f2" stroke="#ffffff"></path><path d="M50 471L63 502L93 468Z" fill="#dbd9d9" stroke="#ffffff"></path><path d="M0 162L29 179L42 155Z" fill="#c4bfbf" stroke="#ffffff"></path><path d="M807 143L825 126L775 115Z" fill="#c4bfbf" stroke="#ffffff"></path><path d="M838 131L825 126L807 143Z" fill="#d5d2d2" stroke="#ffffff"></path><path d="M900 326L853 303L824 328Z" fill="#edecec" stroke="#ffffff"></path><path d="M824 328L853 303L823 273Z" fill="#e7e5e5" stroke="#ffffff"></path><path d="M833 209L838 131L807 143Z" fill="#e1dfdf" stroke="#ffffff"></path><path d="M0 307L0 375L24 377Z" fill="#edecec" stroke="#ffffff"></path><path d="M0 489L51 542L63 502Z" fill="#f3f2f2" stroke="#ffffff"></path><path d="M0 109L0 162L42 155Z" fill="#d5d2d2" stroke="#ffffff"></path><path d="M0 109L48 109L0 38Z" fill="#f9f9f9" stroke="#ffffff"></path><path d="M785 0L763 0L753 27Z" fill="#d0cccc" stroke="#ffffff"></path><path d="M753 27L763 0L718 0Z" fill="#f3f2f2" stroke="#ffffff"></path><path d="M754 498L812 519L755 457Z" fill="#ffffff" stroke="#ffffff"></path><path d="M801 428L861 413L785 402Z" fill="#d0cccc" stroke="#ffffff"></path><path d="M726 600L756 554L685 557Z" fill="#d0cccc" stroke="#ffffff"></path><path d="M0 375L0 395L24 377Z" fill="#e7e5e5" stroke="#ffffff"></path><path d="M900 167L838 131L833 209Z" fill="#e7e5e5" stroke="#ffffff"></path><path d="M838 71L798 41L775 115Z" fill="#d0cccc" stroke="#ffffff"></path><path d="M51 542L126 529L92 508Z" fill="#d5d2d2" stroke="#ffffff"></path><path d="M838 71L775 115L825 126Z" fill="#f3f2f2" stroke="#ffffff"></path><path d="M117 0L68 0L106 39Z" fill="#f9f9f9" stroke="#ffffff"></path><path d="M670 600L726 600L685 557Z" fill="#d5d2d2" stroke="#ffffff"></path><path d="M0 38L48 109L72 76Z" fill="#e7e5e5" stroke="#ffffff"></path><path d="M869 0L785 0L798 41Z" fill="#cac5c5" stroke="#ffffff"></path><path d="M798 41L785 0L753 27Z" fill="#cac5c5" stroke="#ffffff"></path><path d="M812 519L798 524L859 563Z" fill="#e1dfdf" stroke="#ffffff"></path><path d="M756 554L798 524L754 498Z" fill="#ffffff" stroke="#ffffff"></path><path d="M0 489L63 502L50 471Z" fill="#d0cccc" stroke="#ffffff"></path><path d="M63 502L51 542L92 508Z" fill="#cac5c5" stroke="#ffffff"></path><path d="M0 395L0 460L78 418Z" fill="#d0cccc" stroke="#ffffff"></path><path d="M875 426L861 413L801 428Z" fill="#dbd9d9" stroke="#ffffff"></path><path d="M900 99L838 71L838 131Z" fill="#e1dfdf" stroke="#ffffff"></path><path d="M838 131L838 71L825 126Z" fill="#d0cccc" stroke="#ffffff"></path><path d="M900 254L823 273L853 303Z" fill="#dbd9d9" stroke="#ffffff"></path><path d="M803 600L798 524L756 554Z" fill="#ffffff" stroke="#ffffff"></path><path d="M798 524L812 519L754 498Z" fill="#ffffff" stroke="#ffffff"></path><path d="M0 460L0 489L50 471Z" fill="#ffffff" stroke="#ffffff"></path><path d="M726 600L766 600L756 554Z" fill="#f3f2f2" stroke="#ffffff"></path><path d="M38 600L75 600L51 542Z" fill="#c4bfbf" stroke="#ffffff"></path><path d="M51 542L75 600L126 529Z" fill="#ffffff" stroke="#ffffff"></path><path d="M900 296L900 254L853 303Z" fill="#f9f9f9" stroke="#ffffff"></path><path d="M900 326L900 296L853 303Z" fill="#dbd9d9" stroke="#ffffff"></path><path d="M900 396L875 426L900 449Z" fill="#e1dfdf" stroke="#ffffff"></path><path d="M812 519L875 426L801 428Z" fill="#e7e5e5" stroke="#ffffff"></path><path d="M900 396L900 326L824 328Z" fill="#edecec" stroke="#ffffff"></path><path d="M68 0L0 38L72 76Z" fill="#ffffff" stroke="#ffffff"></path><path d="M900 396L824 328L861 413Z" fill="#e1dfdf" stroke="#ffffff"></path><path d="M900 254L900 183L833 209Z" fill="#d5d2d2" stroke="#ffffff"></path><path d="M900 183L900 167L833 209Z" fill="#c4bfbf" stroke="#ffffff"></path><path d="M875 426L900 396L861 413Z" fill="#e1dfdf" stroke="#ffffff"></path><path d="M860 525L875 426L812 519Z" fill="#ffffff" stroke="#ffffff"></path><path d="M68 0L0 0L0 38Z" fill="#d0cccc" stroke="#ffffff"></path><path d="M766 600L803 600L756 554Z" fill="#dbd9d9" stroke="#ffffff"></path><path d="M0 550L38 600L51 542Z" fill="#e1dfdf" stroke="#ffffff"></path><path d="M0 489L0 550L51 542Z" fill="#d5d2d2" stroke="#ffffff"></path><path d="M859 563L860 525L812 519Z" fill="#e1dfdf" stroke="#ffffff"></path><path d="M900 167L900 99L838 131Z" fill="#edecec" stroke="#ffffff"></path><path d="M838 71L869 0L798 41Z" fill="#d5d2d2" stroke="#ffffff"></path><path d="M900 480L900 449L875 426Z" fill="#edecec" stroke="#ffffff"></path><path d="M900 99L900 63L838 71Z" fill="#e7e5e5" stroke="#ffffff"></path><path d="M900 569L900 480L860 525Z" fill="#edecec" stroke="#ffffff"></path><path d="M860 525L900 480L875 426Z" fill="#ffffff" stroke="#ffffff"></path><path d="M900 63L869 0L838 71Z" fill="#e7e5e5" stroke="#ffffff"></path><path d="M803 600L859 563L798 524Z" fill="#e1dfdf" stroke="#ffffff"></path><path d="M0 550L0 600L38 600Z" fill="#f9f9f9" stroke="#ffffff"></path><path d="M900 63L900 0L869 0Z" fill="#d5d2d2" stroke="#ffffff"></path><path d="M803 600L870 600L859 563Z" fill="#e1dfdf" stroke="#ffffff"></path><path d="M859 563L900 569L860 525Z" fill="#cac5c5" stroke="#ffffff"></path><path d="M870 600L900 569L859 563Z" fill="#f3f2f2" stroke="#ffffff"></path><path d="M870 600L900 600L900 569Z" fill="#dbd9d9" stroke="#ffffff"></path></g></svg>