<svg id="visual" viewBox="0 0 900 600" width="900" height="600" xmlns="http://www.w3.org/2000/svg" xmlns:xlink="http://www.w3.org/1999/xlink" version="1.1"><g stroke-width="1" stroke-linejoin="bevel"><path d="M454 278.1L534 338.9L519 244.1Z" fill="#a84600" stroke="#000"></path><path d="M454 278.1L436 354.9L534 338.9Z" fill="#921b03" stroke="#000"></path><path d="M436 354.9L525 406.6L534 338.9Z" fill="#c99200" stroke="#000"></path><path d="M525 406.6L624 320.9L534 338.9Z" fill="#921b03" stroke="#000"></path><path d="M534 338.9L624 320.9L519 244.1Z" fill="#8a0303" stroke="#000"></path><path d="M651 261.1L546 175.4L519 244.1Z" fill="#af5300" stroke="#000"></path><path d="M519 244.1L428 191.4L454 278.1Z" fill="#b56000" stroke="#000"></path><path d="M546 175.4L428 191.4L519 244.1Z" fill="#921b03" stroke="#000"></path><path d="M454 278.1L376 327.9L436 354.9Z" fill="#c58500" stroke="#000"></path><path d="M357 251.1L376 327.9L454 278.1Z" fill="#9a2b02" stroke="#000"></path><path d="M436 354.9L456 424.6L525 406.6Z" fill="#b56000" stroke="#000"></path><path d="M366 406.6L456 424.6L436 354.9Z" fill="#a13901" stroke="#000"></path><path d="M624 320.9L651 261.1L519 244.1Z" fill="#c99200" stroke="#000"></path><path d="M428 191.4L357 251.1L454 278.1Z" fill="#a13901" stroke="#000"></path><path d="M651 261.1L625 166.4L546 175.4Z" fill="#b56000" stroke="#000"></path><path d="M376 327.9L366 406.6L436 354.9Z" fill="#b56000" stroke="#000"></path><path d="M261 348.9L366 406.6L376 327.9Z" fill="#921b03" stroke="#000"></path><path d="M626 90.7L517 104.7L546 175.4Z" fill="#af5300" stroke="#000"></path><path d="M546 175.4L517 104.7L428 191.4Z" fill="#9a2b02" stroke="#000"></path><path d="M428 191.4L359 150.4L357 251.1Z" fill="#921b03" stroke="#000"></path><path d="M523 512.3L635 447.6L525 406.6Z" fill="#c99200" stroke="#000"></path><path d="M525 406.6L635 447.6L624 320.9Z" fill="#c07900" stroke="#000"></path><path d="M624 320.9L730 343.9L651 261.1Z" fill="#921b03" stroke="#000"></path><path d="M517 104.7L456 99.7L428 191.4Z" fill="#af5300" stroke="#000"></path><path d="M456 99.7L359 150.4L428 191.4Z" fill="#af5300" stroke="#000"></path><path d="M431 530.3L523 512.3L456 424.6Z" fill="#9a2b02" stroke="#000"></path><path d="M456 424.6L523 512.3L525 406.6Z" fill="#c07900" stroke="#000"></path><path d="M697 430.6L730 343.9L624 320.9Z" fill="#8a0303" stroke="#000"></path><path d="M651 261.1L726 175.4L625 166.4Z" fill="#bb6c00" stroke="#000"></path><path d="M703 519.3L697 430.6L635 447.6Z" fill="#b56000" stroke="#000"></path><path d="M635 447.6L697 430.6L624 320.9Z" fill="#a13901" stroke="#000"></path><path d="M288 178.4L271 260.1L357 251.1Z" fill="#af5300" stroke="#000"></path><path d="M357 251.1L271 260.1L376 327.9Z" fill="#bb6c00" stroke="#000"></path><path d="M456 99.7L363 103.7L359 150.4Z" fill="#a13901" stroke="#000"></path><path d="M359 150.4L288 178.4L357 251.1Z" fill="#a13901" stroke="#000"></path><path d="M705 97.7L626 90.7L625 166.4Z" fill="#b56000" stroke="#000"></path><path d="M625 166.4L626 90.7L546 175.4Z" fill="#a84600" stroke="#000"></path><path d="M517 104.7L469 0L456 99.7Z" fill="#c99200" stroke="#000"></path><path d="M456 99.7L469 0L363 103.7Z" fill="#c07900" stroke="#000"></path><path d="M730 343.9L736 238.1L651 261.1Z" fill="#a84600" stroke="#000"></path><path d="M363 103.7L288 178.4L359 150.4Z" fill="#c07900" stroke="#000"></path><path d="M356 493.3L456 424.6L366 406.6Z" fill="#bb6c00" stroke="#000"></path><path d="M356 493.3L431 530.3L456 424.6Z" fill="#c99200" stroke="#000"></path><path d="M290 449.6L356 493.3L366 406.6Z" fill="#c99200" stroke="#000"></path><path d="M271 260.1L261 348.9L376 327.9Z" fill="#bb6c00" stroke="#000"></path><path d="M736 238.1L726 175.4L651 261.1Z" fill="#921b03" stroke="#000"></path><path d="M523 512.3L623 517.3L635 447.6Z" fill="#c07900" stroke="#000"></path><path d="M613 600L623 517.3L523 512.3Z" fill="#af5300" stroke="#000"></path><path d="M261 348.9L290 449.6L366 406.6Z" fill="#c99200" stroke="#000"></path><path d="M726 175.4L705 97.7L625 166.4Z" fill="#8a0303" stroke="#000"></path><path d="M557 0L517 104.7L626 90.7Z" fill="#bb6c00" stroke="#000"></path><path d="M557 0L469 0L517 104.7Z" fill="#921b03" stroke="#000"></path><path d="M613 600L703 519.3L623 517.3Z" fill="#c58500" stroke="#000"></path><path d="M623 517.3L703 519.3L635 447.6Z" fill="#9a2b02" stroke="#000"></path><path d="M821 447.6L828 338.9L730 343.9Z" fill="#c58500" stroke="#000"></path><path d="M639 0L557 0L626 90.7Z" fill="#9a2b02" stroke="#000"></path><path d="M445 600L521 600L431 530.3Z" fill="#c58500" stroke="#000"></path><path d="M431 530.3L521 600L523 512.3Z" fill="#8a0303" stroke="#000"></path><path d="M183 192.4L200 261.1L271 260.1Z" fill="#921b03" stroke="#000"></path><path d="M271 260.1L200 261.1L261 348.9Z" fill="#a13901" stroke="#000"></path><path d="M261 348.9L202 355.9L290 449.6Z" fill="#c99200" stroke="#000"></path><path d="M183 192.4L271 260.1L288 178.4Z" fill="#a84600" stroke="#000"></path><path d="M260 65.7L288 178.4L363 103.7Z" fill="#a13901" stroke="#000"></path><path d="M200 261.1L202 355.9L261 348.9Z" fill="#a84600" stroke="#000"></path><path d="M339 600L445 600L431 530.3Z" fill="#b56000" stroke="#000"></path><path d="M339 600L431 530.3L356 493.3Z" fill="#c58500" stroke="#000"></path><path d="M736 238.1L801 169.4L726 175.4Z" fill="#af5300" stroke="#000"></path><path d="M726 175.4L801 169.4L705 97.7Z" fill="#c58500" stroke="#000"></path><path d="M730 343.9L811 244.1L736 238.1Z" fill="#c07900" stroke="#000"></path><path d="M828 338.9L811 244.1L730 343.9Z" fill="#b56000" stroke="#000"></path><path d="M197 506.3L283 519.3L290 449.6Z" fill="#af5300" stroke="#000"></path><path d="M290 449.6L283 519.3L356 493.3Z" fill="#af5300" stroke="#000"></path><path d="M811 244.1L801 169.4L736 238.1Z" fill="#9a2b02" stroke="#000"></path><path d="M521 600L613 600L523 512.3Z" fill="#b56000" stroke="#000"></path><path d="M733 0L639 0L705 97.7Z" fill="#af5300" stroke="#000"></path><path d="M705 97.7L639 0L626 90.7Z" fill="#c07900" stroke="#000"></path><path d="M821 447.6L730 343.9L697 430.6Z" fill="#9a2b02" stroke="#000"></path><path d="M900 172.4L822 100.7L801 169.4Z" fill="#af5300" stroke="#000"></path><path d="M341 0L260 65.7L363 103.7Z" fill="#921b03" stroke="#000"></path><path d="M469 0L341 0L363 103.7Z" fill="#921b03" stroke="#000"></path><path d="M260 65.7L183 192.4L288 178.4Z" fill="#a84600" stroke="#000"></path><path d="M103 319.9L172 418.6L202 355.9Z" fill="#bb6c00" stroke="#000"></path><path d="M283 519.3L339 600L356 493.3Z" fill="#9a2b02" stroke="#000"></path><path d="M792 522.3L821 447.6L697 430.6Z" fill="#b56000" stroke="#000"></path><path d="M792 522.3L697 430.6L703 519.3Z" fill="#a84600" stroke="#000"></path><path d="M103 319.9L202 355.9L200 261.1Z" fill="#c99200" stroke="#000"></path><path d="M202 355.9L172 418.6L290 449.6Z" fill="#a84600" stroke="#000"></path><path d="M283 519.3L275 600L339 600Z" fill="#921b03" stroke="#000"></path><path d="M741 600L792 522.3L703 519.3Z" fill="#9a2b02" stroke="#000"></path><path d="M900 172.4L801 169.4L811 244.1Z" fill="#c99200" stroke="#000"></path><path d="M801 169.4L822 100.7L705 97.7Z" fill="#c58500" stroke="#000"></path><path d="M172 418.6L197 506.3L290 449.6Z" fill="#a13901" stroke="#000"></path><path d="M822 100.7L733 0L705 97.7Z" fill="#921b03" stroke="#000"></path><path d="M341 0L272 0L260 65.7Z" fill="#b56000" stroke="#000"></path><path d="M260 65.7L157 106.7L183 192.4Z" fill="#9a2b02" stroke="#000"></path><path d="M196 600L275 600L283 519.3Z" fill="#8a0303" stroke="#000"></path><path d="M613 600L741 600L703 519.3Z" fill="#b56000" stroke="#000"></path><path d="M176 0L157 106.7L260 65.7Z" fill="#af5300" stroke="#000"></path><path d="M99 273.1L103 319.9L200 261.1Z" fill="#8a0303" stroke="#000"></path><path d="M828 338.9L900 234.1L811 244.1Z" fill="#b56000" stroke="#000"></path><path d="M900 362.9L900 234.1L828 338.9Z" fill="#8a0303" stroke="#000"></path><path d="M900 408.6L828 338.9L821 447.6Z" fill="#921b03" stroke="#000"></path><path d="M900 408.6L900 362.9L828 338.9Z" fill="#bb6c00" stroke="#000"></path><path d="M900 408.6L821 447.6L900 533.3Z" fill="#bb6c00" stroke="#000"></path><path d="M99 273.1L200 261.1L183 192.4Z" fill="#a84600" stroke="#000"></path><path d="M172 418.6L84 441.6L197 506.3Z" fill="#b56000" stroke="#000"></path><path d="M94 158.4L99 273.1L183 192.4Z" fill="#8a0303" stroke="#000"></path><path d="M900 533.3L821 447.6L792 522.3Z" fill="#a13901" stroke="#000"></path><path d="M900 234.1L900 172.4L811 244.1Z" fill="#c99200" stroke="#000"></path><path d="M822 100.7L801 0L733 0Z" fill="#bb6c00" stroke="#000"></path><path d="M900 77.7L801 0L822 100.7Z" fill="#bb6c00" stroke="#000"></path><path d="M111 93.7L94 158.4L157 106.7Z" fill="#c07900" stroke="#000"></path><path d="M157 106.7L94 158.4L183 192.4Z" fill="#b56000" stroke="#000"></path><path d="M89 600L196 600L197 506.3Z" fill="#c07900" stroke="#000"></path><path d="M197 506.3L196 600L283 519.3Z" fill="#b56000" stroke="#000"></path><path d="M741 600L821 600L792 522.3Z" fill="#c07900" stroke="#000"></path><path d="M272 0L176 0L260 65.7Z" fill="#8a0303" stroke="#000"></path><path d="M176 0L111 93.7L157 106.7Z" fill="#c58500" stroke="#000"></path><path d="M0 341.9L84 441.6L103 319.9Z" fill="#8a0303" stroke="#000"></path><path d="M103 319.9L84 441.6L172 418.6Z" fill="#a84600" stroke="#000"></path><path d="M0 341.9L103 319.9L99 273.1Z" fill="#c58500" stroke="#000"></path><path d="M900 172.4L900 77.7L822 100.7Z" fill="#c07900" stroke="#000"></path><path d="M821 600L900 533.3L792 522.3Z" fill="#c99200" stroke="#000"></path><path d="M0 494.3L72 531.3L84 441.6Z" fill="#af5300" stroke="#000"></path><path d="M84 441.6L72 531.3L197 506.3Z" fill="#b56000" stroke="#000"></path><path d="M900 77.7L900 0L801 0Z" fill="#c58500" stroke="#000"></path><path d="M821 600L900 600L900 533.3Z" fill="#9a2b02" stroke="#000"></path><path d="M0 152.4L0 250.1L94 158.4Z" fill="#c99200" stroke="#000"></path><path d="M94 158.4L0 250.1L99 273.1Z" fill="#b56000" stroke="#000"></path><path d="M0 152.4L94 158.4L0 85.7Z" fill="#bb6c00" stroke="#000"></path><path d="M0 250.1L0 341.9L99 273.1Z" fill="#a84600" stroke="#000"></path><path d="M72 531.3L89 600L197 506.3Z" fill="#8a0303" stroke="#000"></path><path d="M0 600L89 600L72 531.3Z" fill="#c58500" stroke="#000"></path><path d="M0 85.7L94 158.4L111 93.7Z" fill="#a84600" stroke="#000"></path><path d="M176 0L70 0L111 93.7Z" fill="#a13901" stroke="#000"></path><path d="M0 341.9L0 445.6L84 441.6Z" fill="#bb6c00" stroke="#000"></path><path d="M0 445.6L0 494.3L84 441.6Z" fill="#a13901" stroke="#000"></path><path d="M70 0L0 85.7L111 93.7Z" fill="#af5300" stroke="#000"></path><path d="M70 0L0 0L0 85.7Z" fill="#9a2b02" stroke="#000"></path><path d="M0 494.3L0 600L72 531.3Z" fill="#c07900" stroke="#000"></path></g></svg>