<svg id="visual" viewBox="0 0 900 600" width="900" height="600" xmlns="http://www.w3.org/2000/svg" xmlns:xlink="http://www.w3.org/1999/xlink" version="1.1"><g stroke-width="1" stroke-linejoin="bevel"><path d="M459 304L480 337.9L481 308Z" fill="#bb6c00" stroke="#000"></path><path d="M459 304L436 351.9L480 337.9Z" fill="#af5300" stroke="#000"></path><path d="M459 304L415 340.9L436 351.9Z" fill="#c99200" stroke="#000"></path><path d="M495 396.7L525 346.9L480 337.9Z" fill="#9a2b02" stroke="#000"></path><path d="M480 337.9L525 346.9L481 308Z" fill="#c07900" stroke="#000"></path><path d="M481 308L448 260.1L459 304Z" fill="#8a0303" stroke="#000"></path><path d="M459 304L396 312L415 340.9Z" fill="#9a2b02" stroke="#000"></path><path d="M507 255.1L448 260.1L481 308Z" fill="#a13901" stroke="#000"></path><path d="M448 260.1L396 312L459 304Z" fill="#c99200" stroke="#000"></path><path d="M407 381.7L463 398.7L436 351.9Z" fill="#9a2b02" stroke="#000"></path><path d="M436 351.9L463 398.7L480 337.9Z" fill="#b56000" stroke="#000"></path><path d="M542 291L507 255.1L481 308Z" fill="#c99200" stroke="#000"></path><path d="M463 398.7L495 396.7L480 337.9Z" fill="#a84600" stroke="#000"></path><path d="M525 346.9L542 291L481 308Z" fill="#af5300" stroke="#000"></path><path d="M354 348.9L407 381.7L415 340.9Z" fill="#9a2b02" stroke="#000"></path><path d="M415 340.9L407 381.7L436 351.9Z" fill="#b56000" stroke="#000"></path><path d="M542 291L535 253.1L507 255.1Z" fill="#9a2b02" stroke="#000"></path><path d="M495 396.7L535 393.7L525 346.9Z" fill="#af5300" stroke="#000"></path><path d="M525 346.9L572 309L542 291Z" fill="#b56000" stroke="#000"></path><path d="M406 222.3L395 251.1L448 260.1Z" fill="#a84600" stroke="#000"></path><path d="M448 260.1L395 251.1L396 312Z" fill="#9a2b02" stroke="#000"></path><path d="M439 219.3L448 260.1L488 205.3Z" fill="#bb6c00" stroke="#000"></path><path d="M395 251.1L368 294L396 312Z" fill="#af5300" stroke="#000"></path><path d="M396 312L354 348.9L415 340.9Z" fill="#c58500" stroke="#000"></path><path d="M586 333.9L572 309L525 346.9Z" fill="#c58500" stroke="#000"></path><path d="M542 291L575 247.1L535 253.1Z" fill="#af5300" stroke="#000"></path><path d="M488 205.3L448 260.1L507 255.1Z" fill="#b56000" stroke="#000"></path><path d="M404 419.6L453 435.6L463 398.7Z" fill="#b56000" stroke="#000"></path><path d="M463 398.7L507 433.6L495 396.7Z" fill="#9a2b02" stroke="#000"></path><path d="M495 396.7L507 433.6L535 393.7Z" fill="#921b03" stroke="#000"></path><path d="M354 387.7L404 419.6L407 381.7Z" fill="#af5300" stroke="#000"></path><path d="M407 381.7L404 419.6L463 398.7Z" fill="#b56000" stroke="#000"></path><path d="M368 294L354 348.9L396 312Z" fill="#bb6c00" stroke="#000"></path><path d="M439 219.3L406 222.3L448 260.1Z" fill="#c07900" stroke="#000"></path><path d="M395 251.1L366 245.1L368 294Z" fill="#bb6c00" stroke="#000"></path><path d="M453 435.6L507 433.6L463 398.7Z" fill="#bb6c00" stroke="#000"></path><path d="M539 212.3L488 205.3L507 255.1Z" fill="#a13901" stroke="#000"></path><path d="M400 181.4L372 201.3L406 222.3Z" fill="#c07900" stroke="#000"></path><path d="M597 381.7L586 333.9L535 393.7Z" fill="#c07900" stroke="#000"></path><path d="M535 393.7L586 333.9L525 346.9Z" fill="#921b03" stroke="#000"></path><path d="M406 222.3L366 245.1L395 251.1Z" fill="#a13901" stroke="#000"></path><path d="M368 294L325 335.9L354 348.9Z" fill="#c07900" stroke="#000"></path><path d="M354 348.9L354 387.7L407 381.7Z" fill="#c99200" stroke="#000"></path><path d="M571 226.3L539 212.3L535 253.1Z" fill="#921b03" stroke="#000"></path><path d="M535 253.1L539 212.3L507 255.1Z" fill="#c99200" stroke="#000"></path><path d="M575 247.1L542 291L572 309Z" fill="#a84600" stroke="#000"></path><path d="M615 293L575 247.1L572 309Z" fill="#921b03" stroke="#000"></path><path d="M398 471.4L448 460.4L404 419.6Z" fill="#b56000" stroke="#000"></path><path d="M404 419.6L448 460.4L453 435.6Z" fill="#921b03" stroke="#000"></path><path d="M453 435.6L495 476.4L507 433.6Z" fill="#921b03" stroke="#000"></path><path d="M539 212.3L497 185.4L488 205.3Z" fill="#8a0303" stroke="#000"></path><path d="M488 205.3L447 165.4L439 219.3Z" fill="#921b03" stroke="#000"></path><path d="M575 247.1L571 226.3L535 253.1Z" fill="#a84600" stroke="#000"></path><path d="M539 212.3L527 159.4L497 185.4Z" fill="#bb6c00" stroke="#000"></path><path d="M354 387.7L373 429.6L404 419.6Z" fill="#8a0303" stroke="#000"></path><path d="M313 314L325 335.9L368 294Z" fill="#c58500" stroke="#000"></path><path d="M354 348.9L311 377.7L354 387.7Z" fill="#bb6c00" stroke="#000"></path><path d="M354 387.7L305 414.6L373 429.6Z" fill="#c07900" stroke="#000"></path><path d="M587 436.6L597 381.7L535 393.7Z" fill="#a13901" stroke="#000"></path><path d="M586 333.9L615 293L572 309Z" fill="#a84600" stroke="#000"></path><path d="M495 476.4L546 442.6L507 433.6Z" fill="#a84600" stroke="#000"></path><path d="M507 433.6L546 442.6L535 393.7Z" fill="#bb6c00" stroke="#000"></path><path d="M623 341.9L615 293L586 333.9Z" fill="#9a2b02" stroke="#000"></path><path d="M575 247.1L616 254.1L571 226.3Z" fill="#af5300" stroke="#000"></path><path d="M400 181.4L406 222.3L439 219.3Z" fill="#921b03" stroke="#000"></path><path d="M406 222.3L372 201.3L366 245.1Z" fill="#8a0303" stroke="#000"></path><path d="M309 259.1L313 314L368 294Z" fill="#c58500" stroke="#000"></path><path d="M309 259.1L368 294L366 245.1Z" fill="#9a2b02" stroke="#000"></path><path d="M325 335.9L311 377.7L354 348.9Z" fill="#a84600" stroke="#000"></path><path d="M447 165.4L400 181.4L439 219.3Z" fill="#a13901" stroke="#000"></path><path d="M448 460.4L495 476.4L453 435.6Z" fill="#c58500" stroke="#000"></path><path d="M597 381.7L623 341.9L586 333.9Z" fill="#af5300" stroke="#000"></path><path d="M497 185.4L447 165.4L488 205.3Z" fill="#8a0303" stroke="#000"></path><path d="M628 215.3L616 254.1L679 264.1Z" fill="#a13901" stroke="#000"></path><path d="M615 293L616 254.1L575 247.1Z" fill="#c58500" stroke="#000"></path><path d="M373 429.6L398 471.4L404 419.6Z" fill="#c07900" stroke="#000"></path><path d="M457 525.3L493 523.3L495 476.4Z" fill="#c58500" stroke="#000"></path><path d="M257 336.9L311 377.7L325 335.9Z" fill="#b56000" stroke="#000"></path><path d="M373 429.6L355 485.4L398 471.4Z" fill="#a84600" stroke="#000"></path><path d="M554 467.4L587 436.6L546 442.6Z" fill="#bb6c00" stroke="#000"></path><path d="M546 442.6L587 436.6L535 393.7Z" fill="#c58500" stroke="#000"></path><path d="M597 381.7L640 379.7L623 341.9Z" fill="#a84600" stroke="#000"></path><path d="M495 476.4L554 467.4L546 442.6Z" fill="#c99200" stroke="#000"></path><path d="M322 199.3L309 259.1L366 245.1Z" fill="#bb6c00" stroke="#000"></path><path d="M266 399.7L305 414.6L311 377.7Z" fill="#a84600" stroke="#000"></path><path d="M597 164.4L527 159.4L539 212.3Z" fill="#9a2b02" stroke="#000"></path><path d="M497 185.4L498 136.6L447 165.4Z" fill="#921b03" stroke="#000"></path><path d="M597 164.4L539 212.3L571 226.3Z" fill="#af5300" stroke="#000"></path><path d="M632 442.6L640 379.7L597 381.7Z" fill="#af5300" stroke="#000"></path><path d="M623 341.9L666 293L615 293Z" fill="#bb6c00" stroke="#000"></path><path d="M400 181.4L373 163.4L372 201.3Z" fill="#af5300" stroke="#000"></path><path d="M372 201.3L322 199.3L366 245.1Z" fill="#c58500" stroke="#000"></path><path d="M407 118.6L373 163.4L400 181.4Z" fill="#9a2b02" stroke="#000"></path><path d="M407 118.6L400 181.4L447 165.4Z" fill="#c58500" stroke="#000"></path><path d="M257 336.9L325 335.9L313 314Z" fill="#c07900" stroke="#000"></path><path d="M311 377.7L305 414.6L354 387.7Z" fill="#8a0303" stroke="#000"></path><path d="M527 159.4L498 136.6L497 185.4Z" fill="#9a2b02" stroke="#000"></path><path d="M373 163.4L322 199.3L372 201.3Z" fill="#9a2b02" stroke="#000"></path><path d="M554 467.4L592 469.4L587 436.6Z" fill="#c07900" stroke="#000"></path><path d="M587 436.6L632 442.6L597 381.7Z" fill="#9a2b02" stroke="#000"></path><path d="M593 513.3L592 469.4L554 467.4Z" fill="#c99200" stroke="#000"></path><path d="M666 293L616 254.1L615 293Z" fill="#a84600" stroke="#000"></path><path d="M616 254.1L628 215.3L571 226.3Z" fill="#bb6c00" stroke="#000"></path><path d="M527 159.4L553 136.6L498 136.6Z" fill="#b56000" stroke="#000"></path><path d="M498 136.6L453 126.6L447 165.4Z" fill="#a13901" stroke="#000"></path><path d="M368 499.3L417 513.3L398 471.4Z" fill="#8a0303" stroke="#000"></path><path d="M398 471.4L417 513.3L448 460.4Z" fill="#9a2b02" stroke="#000"></path><path d="M495 476.4L537 518.3L554 467.4Z" fill="#af5300" stroke="#000"></path><path d="M305 414.6L355 485.4L373 429.6Z" fill="#a13901" stroke="#000"></path><path d="M273 257.1L270 289L309 259.1Z" fill="#8a0303" stroke="#000"></path><path d="M309 259.1L270 289L313 314Z" fill="#bb6c00" stroke="#000"></path><path d="M680 344.9L666 293L623 341.9Z" fill="#a84600" stroke="#000"></path><path d="M457 525.3L495 476.4L448 460.4Z" fill="#bb6c00" stroke="#000"></path><path d="M355 485.4L368 499.3L398 471.4Z" fill="#a84600" stroke="#000"></path><path d="M497 548.1L457 525.3L456 568.1Z" fill="#a84600" stroke="#000"></path><path d="M417 513.3L457 525.3L448 460.4Z" fill="#a84600" stroke="#000"></path><path d="M592 469.4L632 442.6L587 436.6Z" fill="#a13901" stroke="#000"></path><path d="M640 379.7L680 344.9L623 341.9Z" fill="#bb6c00" stroke="#000"></path><path d="M628 215.3L597 164.4L571 226.3Z" fill="#a84600" stroke="#000"></path><path d="M275 202.3L273 257.1L309 259.1Z" fill="#9a2b02" stroke="#000"></path><path d="M597 164.4L553 136.6L527 159.4Z" fill="#a13901" stroke="#000"></path><path d="M498 136.6L495 89.7L453 126.6Z" fill="#c58500" stroke="#000"></path><path d="M493 523.3L537 518.3L495 476.4Z" fill="#a13901" stroke="#000"></path><path d="M592 469.4L641 473.4L632 442.6Z" fill="#8a0303" stroke="#000"></path><path d="M236 335.9L257 336.9L221 300Z" fill="#c07900" stroke="#000"></path><path d="M270 289L257 336.9L313 314Z" fill="#b56000" stroke="#000"></path><path d="M442 74.7L407 118.6L453 126.6Z" fill="#8a0303" stroke="#000"></path><path d="M453 126.6L407 118.6L447 165.4Z" fill="#af5300" stroke="#000"></path><path d="M373 163.4L304 167.4L322 199.3Z" fill="#bb6c00" stroke="#000"></path><path d="M686 399.7L680 344.9L640 379.7Z" fill="#af5300" stroke="#000"></path><path d="M257 336.9L266 399.7L311 377.7Z" fill="#a84600" stroke="#000"></path><path d="M305 414.6L300 479.4L355 485.4Z" fill="#8a0303" stroke="#000"></path><path d="M355 485.4L312 506.3L368 499.3Z" fill="#c99200" stroke="#000"></path><path d="M706 293L679 264.1L666 293Z" fill="#c07900" stroke="#000"></path><path d="M666 293L679 264.1L616 254.1Z" fill="#b56000" stroke="#000"></path><path d="M628 215.3L634 171.4L597 164.4Z" fill="#c99200" stroke="#000"></path><path d="M310 133.6L304 167.4L373 163.4Z" fill="#b56000" stroke="#000"></path><path d="M322 199.3L275 202.3L309 259.1Z" fill="#c07900" stroke="#000"></path><path d="M664 207.3L634 171.4L628 215.3Z" fill="#9a2b02" stroke="#000"></path><path d="M577 86.7L534 91.7L553 136.6Z" fill="#a13901" stroke="#000"></path><path d="M304 167.4L275 202.3L322 199.3Z" fill="#af5300" stroke="#000"></path><path d="M221 300L257 336.9L270 289Z" fill="#9a2b02" stroke="#000"></path><path d="M457 525.3L497 548.1L493 523.3Z" fill="#af5300" stroke="#000"></path><path d="M493 523.3L531 551.1L537 518.3Z" fill="#921b03" stroke="#000"></path><path d="M407 557.1L457 525.3L417 513.3Z" fill="#8a0303" stroke="#000"></path><path d="M679 264.1L664 207.3L628 215.3Z" fill="#921b03" stroke="#000"></path><path d="M589 562.1L593 513.3L537 518.3Z" fill="#af5300" stroke="#000"></path><path d="M537 518.3L593 513.3L554 467.4Z" fill="#a13901" stroke="#000"></path><path d="M258 457.4L300 479.4L305 414.6Z" fill="#b56000" stroke="#000"></path><path d="M359 545.1L407 557.1L417 513.3Z" fill="#c07900" stroke="#000"></path><path d="M593 513.3L641 473.4L592 469.4Z" fill="#bb6c00" stroke="#000"></path><path d="M687 417.6L686 399.7L640 379.7Z" fill="#af5300" stroke="#000"></path><path d="M235 245.1L270 289L273 257.1Z" fill="#9a2b02" stroke="#000"></path><path d="M257 336.9L236 335.9L266 399.7Z" fill="#bb6c00" stroke="#000"></path><path d="M266 399.7L258 423.6L305 414.6Z" fill="#c58500" stroke="#000"></path><path d="M220 422.6L258 423.6L266 399.7Z" fill="#af5300" stroke="#000"></path><path d="M687 417.6L640 379.7L632 442.6Z" fill="#a84600" stroke="#000"></path><path d="M680 344.9L706 293L666 293Z" fill="#af5300" stroke="#000"></path><path d="M407 118.6L359 116.6L373 163.4Z" fill="#af5300" stroke="#000"></path><path d="M534 91.7L498 136.6L553 136.6Z" fill="#af5300" stroke="#000"></path><path d="M534 91.7L495 89.7L498 136.6Z" fill="#8a0303" stroke="#000"></path><path d="M407 118.6L412 71.7L359 116.6Z" fill="#c07900" stroke="#000"></path><path d="M497 548.1L531 551.1L493 523.3Z" fill="#af5300" stroke="#000"></path><path d="M673 467.4L687 417.6L632 442.6Z" fill="#c99200" stroke="#000"></path><path d="M730 340.9L706 293L680 344.9Z" fill="#a13901" stroke="#000"></path><path d="M594 117.6L553 136.6L597 164.4Z" fill="#af5300" stroke="#000"></path><path d="M276 499.3L312 506.3L300 479.4Z" fill="#b56000" stroke="#000"></path><path d="M300 479.4L312 506.3L355 485.4Z" fill="#af5300" stroke="#000"></path><path d="M730 340.9L680 344.9L730 390.7Z" fill="#c58500" stroke="#000"></path><path d="M679 264.1L713 222.3L664 207.3Z" fill="#a84600" stroke="#000"></path><path d="M636 134.6L597 164.4L634 171.4Z" fill="#a84600" stroke="#000"></path><path d="M636 134.6L594 117.6L597 164.4Z" fill="#c58500" stroke="#000"></path><path d="M359 545.1L417 513.3L368 499.3Z" fill="#c07900" stroke="#000"></path><path d="M497 548.1L502 600L531 551.1Z" fill="#af5300" stroke="#000"></path><path d="M223 203.3L235 245.1L275 202.3Z" fill="#9a2b02" stroke="#000"></path><path d="M275 202.3L235 245.1L273 257.1Z" fill="#af5300" stroke="#000"></path><path d="M713 222.3L668 182.4L664 207.3Z" fill="#c58500" stroke="#000"></path><path d="M664 207.3L668 182.4L634 171.4Z" fill="#af5300" stroke="#000"></path><path d="M359 116.6L310 133.6L373 163.4Z" fill="#b56000" stroke="#000"></path><path d="M304 167.4L255 171.4L275 202.3Z" fill="#af5300" stroke="#000"></path><path d="M407 557.1L456 568.1L457 525.3Z" fill="#af5300" stroke="#000"></path><path d="M235 245.1L221 300L270 289Z" fill="#c58500" stroke="#000"></path><path d="M220 422.6L258 457.4L258 423.6Z" fill="#b56000" stroke="#000"></path><path d="M312 506.3L359 545.1L368 499.3Z" fill="#c58500" stroke="#000"></path><path d="M211 392.7L266 399.7L236 335.9Z" fill="#c07900" stroke="#000"></path><path d="M258 423.6L258 457.4L305 414.6Z" fill="#921b03" stroke="#000"></path><path d="M503 45.9L442 74.7L495 89.7Z" fill="#9a2b02" stroke="#000"></path><path d="M495 89.7L442 74.7L453 126.6Z" fill="#a13901" stroke="#000"></path><path d="M359 116.6L323 82.7L310 133.6Z" fill="#c99200" stroke="#000"></path><path d="M641 473.4L673 467.4L632 442.6Z" fill="#b56000" stroke="#000"></path><path d="M683 500.3L673 467.4L641 473.4Z" fill="#bb6c00" stroke="#000"></path><path d="M623 526.3L641 473.4L593 513.3Z" fill="#c58500" stroke="#000"></path><path d="M672 137.6L636 134.6L634 171.4Z" fill="#bb6c00" stroke="#000"></path><path d="M594 117.6L577 86.7L553 136.6Z" fill="#b56000" stroke="#000"></path><path d="M762 301L714 268.1L706 293Z" fill="#921b03" stroke="#000"></path><path d="M706 293L714 268.1L679 264.1Z" fill="#a84600" stroke="#000"></path><path d="M589 562.1L623 526.3L593 513.3Z" fill="#a13901" stroke="#000"></path><path d="M442 74.7L412 71.7L407 118.6Z" fill="#9a2b02" stroke="#000"></path><path d="M637 99.7L577 86.7L594 117.6Z" fill="#af5300" stroke="#000"></path><path d="M534 91.7L503 45.9L495 89.7Z" fill="#c58500" stroke="#000"></path><path d="M441 30.9L393 53.9L412 71.7Z" fill="#c07900" stroke="#000"></path><path d="M258 457.4L276 499.3L300 479.4Z" fill="#c58500" stroke="#000"></path><path d="M312 506.3L315 566.1L359 545.1Z" fill="#a13901" stroke="#000"></path><path d="M271 113.6L255 171.4L304 167.4Z" fill="#c58500" stroke="#000"></path><path d="M730 390.7L686 399.7L687 417.6Z" fill="#c99200" stroke="#000"></path><path d="M730 390.7L680 344.9L686 399.7Z" fill="#c58500" stroke="#000"></path><path d="M187 331.9L211 392.7L236 335.9Z" fill="#c58500" stroke="#000"></path><path d="M258 457.4L232 473.4L276 499.3Z" fill="#a13901" stroke="#000"></path><path d="M714 268.1L713 222.3L679 264.1Z" fill="#c07900" stroke="#000"></path><path d="M668 182.4L672 137.6L634 171.4Z" fill="#a84600" stroke="#000"></path><path d="M754 250.1L713 222.3L714 268.1Z" fill="#b56000" stroke="#000"></path><path d="M211 392.7L220 422.6L266 399.7Z" fill="#c99200" stroke="#000"></path><path d="M412 71.7L346 83.7L359 116.6Z" fill="#a13901" stroke="#000"></path><path d="M310 133.6L271 113.6L304 167.4Z" fill="#9a2b02" stroke="#000"></path><path d="M531 551.1L589 562.1L537 518.3Z" fill="#921b03" stroke="#000"></path><path d="M541 600L589 562.1L531 551.1Z" fill="#8a0303" stroke="#000"></path><path d="M255 171.4L223 203.3L275 202.3Z" fill="#c07900" stroke="#000"></path><path d="M165 303L187 331.9L221 300Z" fill="#bb6c00" stroke="#000"></path><path d="M221 300L187 331.9L236 335.9Z" fill="#a84600" stroke="#000"></path><path d="M734 432.6L730 390.7L687 417.6Z" fill="#a84600" stroke="#000"></path><path d="M706 169.4L672 137.6L668 182.4Z" fill="#bb6c00" stroke="#000"></path><path d="M636 134.6L637 99.7L594 117.6Z" fill="#a84600" stroke="#000"></path><path d="M402 600L462 600L456 568.1Z" fill="#c99200" stroke="#000"></path><path d="M456 568.1L502 600L497 548.1Z" fill="#b56000" stroke="#000"></path><path d="M402 600L456 568.1L407 557.1Z" fill="#af5300" stroke="#000"></path><path d="M441 30.9L412 71.7L442 74.7Z" fill="#c58500" stroke="#000"></path><path d="M412 71.7L393 53.9L346 83.7Z" fill="#8a0303" stroke="#000"></path><path d="M549 27.9L534 91.7L577 86.7Z" fill="#a13901" stroke="#000"></path><path d="M549 27.9L503 45.9L534 91.7Z" fill="#c07900" stroke="#000"></path><path d="M176 467.4L232 473.4L220 422.6Z" fill="#9a2b02" stroke="#000"></path><path d="M220 422.6L232 473.4L258 457.4Z" fill="#c58500" stroke="#000"></path><path d="M351 52.9L323 82.7L346 83.7Z" fill="#c99200" stroke="#000"></path><path d="M346 83.7L323 82.7L359 116.6Z" fill="#a84600" stroke="#000"></path><path d="M255 171.4L212 156.4L223 203.3Z" fill="#a13901" stroke="#000"></path><path d="M462 600L502 600L456 568.1Z" fill="#bb6c00" stroke="#000"></path><path d="M638 554.1L683 500.3L623 526.3Z" fill="#a13901" stroke="#000"></path><path d="M623 526.3L683 500.3L641 473.4Z" fill="#a13901" stroke="#000"></path><path d="M725 459.4L734 432.6L687 417.6Z" fill="#bb6c00" stroke="#000"></path><path d="M194 259.1L221 300L235 245.1Z" fill="#8a0303" stroke="#000"></path><path d="M211 392.7L185 416.6L220 422.6Z" fill="#8a0303" stroke="#000"></path><path d="M672 137.6L637 99.7L636 134.6Z" fill="#c58500" stroke="#000"></path><path d="M223 203.3L194 259.1L235 245.1Z" fill="#c58500" stroke="#000"></path><path d="M753 171.4L706 169.4L713 222.3Z" fill="#a13901" stroke="#000"></path><path d="M713 222.3L706 169.4L668 182.4Z" fill="#921b03" stroke="#000"></path><path d="M672 137.6L663 76.7L637 99.7Z" fill="#9a2b02" stroke="#000"></path><path d="M369 600L407 557.1L359 545.1Z" fill="#c58500" stroke="#000"></path><path d="M369 600L402 600L407 557.1Z" fill="#c58500" stroke="#000"></path><path d="M315 566.1L312 506.3L272 544.1Z" fill="#af5300" stroke="#000"></path><path d="M280 89.7L271 113.6L310 133.6Z" fill="#b56000" stroke="#000"></path><path d="M272 544.1L312 506.3L276 499.3Z" fill="#a84600" stroke="#000"></path><path d="M502 600L541 600L531 551.1Z" fill="#9a2b02" stroke="#000"></path><path d="M589 562.1L638 554.1L623 526.3Z" fill="#a13901" stroke="#000"></path><path d="M616 600L638 554.1L589 562.1Z" fill="#af5300" stroke="#000"></path><path d="M725 459.4L687 417.6L673 467.4Z" fill="#8a0303" stroke="#000"></path><path d="M768 328.9L762 301L730 340.9Z" fill="#c07900" stroke="#000"></path><path d="M187 331.9L185 391.7L211 392.7Z" fill="#b56000" stroke="#000"></path><path d="M683 500.3L725 459.4L673 467.4Z" fill="#af5300" stroke="#000"></path><path d="M711 516.3L725 459.4L683 500.3Z" fill="#c07900" stroke="#000"></path><path d="M503 45.9L441 30.9L442 74.7Z" fill="#9a2b02" stroke="#000"></path><path d="M393 53.9L351 52.9L346 83.7Z" fill="#a84600" stroke="#000"></path><path d="M368 0L351 52.9L393 53.9Z" fill="#8a0303" stroke="#000"></path><path d="M323 82.7L280 89.7L310 133.6Z" fill="#9a2b02" stroke="#000"></path><path d="M315 566.1L369 600L359 545.1Z" fill="#a13901" stroke="#000"></path><path d="M235 516.3L272 544.1L276 499.3Z" fill="#c07900" stroke="#000"></path><path d="M315 566.1L324 600L369 600Z" fill="#c58500" stroke="#000"></path><path d="M235 516.3L276 499.3L232 473.4Z" fill="#921b03" stroke="#000"></path><path d="M768 328.9L730 340.9L773 379.7Z" fill="#921b03" stroke="#000"></path><path d="M730 340.9L762 301L706 293Z" fill="#b56000" stroke="#000"></path><path d="M762 301L754 250.1L714 268.1Z" fill="#a13901" stroke="#000"></path><path d="M185 391.7L185 416.6L211 392.7Z" fill="#a13901" stroke="#000"></path><path d="M541 600L574 600L589 562.1Z" fill="#c07900" stroke="#000"></path><path d="M306 31.9L280 89.7L323 82.7Z" fill="#a13901" stroke="#000"></path><path d="M224 123.6L212 156.4L255 171.4Z" fill="#921b03" stroke="#000"></path><path d="M132 269.1L165 303L194 259.1Z" fill="#a13901" stroke="#000"></path><path d="M773 379.7L730 340.9L730 390.7Z" fill="#b56000" stroke="#000"></path><path d="M806 265.1L767 207.3L754 250.1Z" fill="#921b03" stroke="#000"></path><path d="M188 527.3L235 516.3L232 473.4Z" fill="#b56000" stroke="#000"></path><path d="M170 203.3L194 259.1L223 203.3Z" fill="#b56000" stroke="#000"></path><path d="M194 259.1L165 303L221 300Z" fill="#b56000" stroke="#000"></path><path d="M187 331.9L141 341.9L185 391.7Z" fill="#bb6c00" stroke="#000"></path><path d="M126 426.6L176 467.4L185 416.6Z" fill="#af5300" stroke="#000"></path><path d="M766 460.4L754 421.6L734 432.6Z" fill="#bb6c00" stroke="#000"></path><path d="M734 432.6L754 421.6L730 390.7Z" fill="#c58500" stroke="#000"></path><path d="M224 123.6L255 171.4L271 113.6Z" fill="#af5300" stroke="#000"></path><path d="M586 35.9L549 27.9L577 86.7Z" fill="#a84600" stroke="#000"></path><path d="M503 45.9L463 0L441 30.9Z" fill="#a13901" stroke="#000"></path><path d="M626 45.9L586 35.9L577 86.7Z" fill="#b56000" stroke="#000"></path><path d="M626 45.9L577 86.7L637 99.7Z" fill="#9a2b02" stroke="#000"></path><path d="M754 421.6L773 379.7L730 390.7Z" fill="#9a2b02" stroke="#000"></path><path d="M725 459.4L766 460.4L734 432.6Z" fill="#a13901" stroke="#000"></path><path d="M685 558.1L711 516.3L683 500.3Z" fill="#b56000" stroke="#000"></path><path d="M685 558.1L683 500.3L638 554.1Z" fill="#c99200" stroke="#000"></path><path d="M269 600L315 566.1L272 544.1Z" fill="#921b03" stroke="#000"></path><path d="M269 600L324 600L315 566.1Z" fill="#b56000" stroke="#000"></path><path d="M234 74.7L224 123.6L271 113.6Z" fill="#c99200" stroke="#000"></path><path d="M725 125.6L672 137.6L706 169.4Z" fill="#a13901" stroke="#000"></path><path d="M709 83.7L663 76.7L672 137.6Z" fill="#c58500" stroke="#000"></path><path d="M574 600L616 600L589 562.1Z" fill="#c58500" stroke="#000"></path><path d="M663 76.7L626 45.9L637 99.7Z" fill="#bb6c00" stroke="#000"></path><path d="M165 163.4L170 203.3L212 156.4Z" fill="#b56000" stroke="#000"></path><path d="M212 156.4L170 203.3L223 203.3Z" fill="#8a0303" stroke="#000"></path><path d="M668 600L685 558.1L638 554.1Z" fill="#c99200" stroke="#000"></path><path d="M806 265.1L754 250.1L762 301Z" fill="#c99200" stroke="#000"></path><path d="M754 250.1L767 207.3L713 222.3Z" fill="#c99200" stroke="#000"></path><path d="M801 308L762 301L768 328.9Z" fill="#c99200" stroke="#000"></path><path d="M493 0L463 0L503 45.9Z" fill="#9a2b02" stroke="#000"></path><path d="M441 30.9L399 0L393 53.9Z" fill="#bb6c00" stroke="#000"></path><path d="M493 0L503 45.9L543 0Z" fill="#a13901" stroke="#000"></path><path d="M503 45.9L549 27.9L543 0Z" fill="#c07900" stroke="#000"></path><path d="M767 207.3L753 171.4L713 222.3Z" fill="#921b03" stroke="#000"></path><path d="M543 0L549 27.9L596 0Z" fill="#c07900" stroke="#000"></path><path d="M751 134.6L725 125.6L706 169.4Z" fill="#b56000" stroke="#000"></path><path d="M663 76.7L661 28.9L626 45.9Z" fill="#b56000" stroke="#000"></path><path d="M126 426.6L185 416.6L185 391.7Z" fill="#a84600" stroke="#000"></path><path d="M185 416.6L176 467.4L220 422.6Z" fill="#a84600" stroke="#000"></path><path d="M235 516.3L220 546.1L272 544.1Z" fill="#af5300" stroke="#000"></path><path d="M125 314L141 341.9L165 303Z" fill="#a84600" stroke="#000"></path><path d="M165 303L141 341.9L187 331.9Z" fill="#921b03" stroke="#000"></path><path d="M762 514.3L725 459.4L711 516.3Z" fill="#9a2b02" stroke="#000"></path><path d="M762 514.3L766 460.4L725 459.4Z" fill="#8a0303" stroke="#000"></path><path d="M807 414.6L815 373.7L773 379.7Z" fill="#c99200" stroke="#000"></path><path d="M463 0L399 0L441 30.9Z" fill="#af5300" stroke="#000"></path><path d="M351 52.9L306 31.9L323 82.7Z" fill="#a84600" stroke="#000"></path><path d="M280 89.7L234 74.7L271 113.6Z" fill="#af5300" stroke="#000"></path><path d="M596 0L549 27.9L586 35.9Z" fill="#9a2b02" stroke="#000"></path><path d="M368 0L306 31.9L351 52.9Z" fill="#8a0303" stroke="#000"></path><path d="M188 527.3L220 546.1L235 516.3Z" fill="#a84600" stroke="#000"></path><path d="M815 373.7L768 328.9L773 379.7Z" fill="#a84600" stroke="#000"></path><path d="M823 338.9L801 308L768 328.9Z" fill="#a13901" stroke="#000"></path><path d="M399 0L368 0L393 53.9Z" fill="#bb6c00" stroke="#000"></path><path d="M144 211.3L132 269.1L194 259.1Z" fill="#af5300" stroke="#000"></path><path d="M725 125.6L709 83.7L672 137.6Z" fill="#a84600" stroke="#000"></path><path d="M618 0L596 0L586 35.9Z" fill="#af5300" stroke="#000"></path><path d="M752 72.7L709 83.7L725 125.6Z" fill="#c58500" stroke="#000"></path><path d="M258 31.9L234 74.7L280 89.7Z" fill="#a13901" stroke="#000"></path><path d="M176 142.6L165 163.4L212 156.4Z" fill="#af5300" stroke="#000"></path><path d="M170 203.3L144 211.3L194 259.1Z" fill="#8a0303" stroke="#000"></path><path d="M803 161.4L751 134.6L753 171.4Z" fill="#c58500" stroke="#000"></path><path d="M753 171.4L751 134.6L706 169.4Z" fill="#a13901" stroke="#000"></path><path d="M803 161.4L753 171.4L767 207.3Z" fill="#921b03" stroke="#000"></path><path d="M233 600L269 600L272 544.1Z" fill="#a84600" stroke="#000"></path><path d="M176 142.6L212 156.4L224 123.6Z" fill="#8a0303" stroke="#000"></path><path d="M165 163.4L144 211.3L170 203.3Z" fill="#8a0303" stroke="#000"></path><path d="M132 269.1L125 314L165 303Z" fill="#af5300" stroke="#000"></path><path d="M141 341.9L120 382.7L185 391.7Z" fill="#bb6c00" stroke="#000"></path><path d="M181 87.7L176 142.6L224 123.6Z" fill="#bb6c00" stroke="#000"></path><path d="M616 600L668 600L638 554.1Z" fill="#921b03" stroke="#000"></path><path d="M685 558.1L731 546.1L711 516.3Z" fill="#921b03" stroke="#000"></path><path d="M801 308L806 265.1L762 301Z" fill="#a13901" stroke="#000"></path><path d="M730 600L731 546.1L685 558.1Z" fill="#a84600" stroke="#000"></path><path d="M140 508.3L188 527.3L176 467.4Z" fill="#a84600" stroke="#000"></path><path d="M176 467.4L188 527.3L232 473.4Z" fill="#921b03" stroke="#000"></path><path d="M220 546.1L233 600L272 544.1Z" fill="#8a0303" stroke="#000"></path><path d="M618 0L586 35.9L626 45.9Z" fill="#8a0303" stroke="#000"></path><path d="M807 414.6L754 421.6L766 460.4Z" fill="#c07900" stroke="#000"></path><path d="M807 414.6L773 379.7L754 421.6Z" fill="#a13901" stroke="#000"></path><path d="M801 308L853 267.1L806 265.1Z" fill="#c07900" stroke="#000"></path><path d="M731 546.1L762 514.3L711 516.3Z" fill="#af5300" stroke="#000"></path><path d="M721 36.9L661 28.9L663 76.7Z" fill="#a84600" stroke="#000"></path><path d="M98 336.9L120 382.7L141 341.9Z" fill="#af5300" stroke="#000"></path><path d="M818 461.4L807 414.6L766 460.4Z" fill="#a13901" stroke="#000"></path><path d="M661 28.9L618 0L626 45.9Z" fill="#8a0303" stroke="#000"></path><path d="M857 340.9L823 338.9L855 373.7Z" fill="#bb6c00" stroke="#000"></path><path d="M815 373.7L823 338.9L768 328.9Z" fill="#a84600" stroke="#000"></path><path d="M120 382.7L126 426.6L185 391.7Z" fill="#af5300" stroke="#000"></path><path d="M306 31.9L258 31.9L280 89.7Z" fill="#921b03" stroke="#000"></path><path d="M234 74.7L181 87.7L224 123.6Z" fill="#c07900" stroke="#000"></path><path d="M279 0L258 31.9L306 31.9Z" fill="#a84600" stroke="#000"></path><path d="M368 0L302 0L306 31.9Z" fill="#b56000" stroke="#000"></path><path d="M189 600L233 600L220 546.1Z" fill="#a84600" stroke="#000"></path><path d="M125 314L98 336.9L141 341.9Z" fill="#b56000" stroke="#000"></path><path d="M120 382.7L100 423.6L126 426.6Z" fill="#a13901" stroke="#000"></path><path d="M76 303L98 336.9L125 314Z" fill="#9a2b02" stroke="#000"></path><path d="M94 266.1L125 314L132 269.1Z" fill="#921b03" stroke="#000"></path><path d="M169 53.9L181 87.7L234 74.7Z" fill="#921b03" stroke="#000"></path><path d="M144 133.6L129 163.4L165 163.4Z" fill="#8a0303" stroke="#000"></path><path d="M165 163.4L129 163.4L144 211.3Z" fill="#a13901" stroke="#000"></path><path d="M88 224.3L94 266.1L132 269.1Z" fill="#c07900" stroke="#000"></path><path d="M227 0L234 31.9L258 31.9Z" fill="#bb6c00" stroke="#000"></path><path d="M258 31.9L234 31.9L234 74.7Z" fill="#9a2b02" stroke="#000"></path><path d="M824 201.3L803 161.4L767 207.3Z" fill="#bb6c00" stroke="#000"></path><path d="M751 134.6L752 72.7L725 125.6Z" fill="#bb6c00" stroke="#000"></path><path d="M709 83.7L721 36.9L663 76.7Z" fill="#b56000" stroke="#000"></path><path d="M824 201.3L767 207.3L806 265.1Z" fill="#c58500" stroke="#000"></path><path d="M302 0L279 0L306 31.9Z" fill="#b56000" stroke="#000"></path><path d="M144 133.6L165 163.4L176 142.6Z" fill="#c07900" stroke="#000"></path><path d="M181 87.7L144 133.6L176 142.6Z" fill="#bb6c00" stroke="#000"></path><path d="M731 546.1L765 551.1L762 514.3Z" fill="#af5300" stroke="#000"></path><path d="M822 500.3L818 461.4L766 460.4Z" fill="#c07900" stroke="#000"></path><path d="M756 600L765 551.1L731 546.1Z" fill="#bb6c00" stroke="#000"></path><path d="M123 483.4L140 508.3L176 467.4Z" fill="#a84600" stroke="#000"></path><path d="M188 527.3L168 551.1L220 546.1Z" fill="#af5300" stroke="#000"></path><path d="M123 483.4L176 467.4L126 426.6Z" fill="#c99200" stroke="#000"></path><path d="M140 508.3L168 551.1L188 527.3Z" fill="#b56000" stroke="#000"></path><path d="M853 267.1L824 201.3L806 265.1Z" fill="#9a2b02" stroke="#000"></path><path d="M88 224.3L132 269.1L144 211.3Z" fill="#af5300" stroke="#000"></path><path d="M822 500.3L766 460.4L762 514.3Z" fill="#9a2b02" stroke="#000"></path><path d="M855 373.7L823 338.9L815 373.7Z" fill="#8a0303" stroke="#000"></path><path d="M796 96.7L752 72.7L751 134.6Z" fill="#a13901" stroke="#000"></path><path d="M661 28.9L684 0L618 0Z" fill="#921b03" stroke="#000"></path><path d="M84 465.4L123 483.4L126 426.6Z" fill="#a84600" stroke="#000"></path><path d="M135 600L189 600L168 551.1Z" fill="#921b03" stroke="#000"></path><path d="M53 392.7L93 388.7L98 336.9Z" fill="#921b03" stroke="#000"></path><path d="M98 336.9L93 388.7L120 382.7Z" fill="#8a0303" stroke="#000"></path><path d="M93 388.7L100 423.6L120 382.7Z" fill="#921b03" stroke="#000"></path><path d="M752 72.7L721 36.9L709 83.7Z" fill="#9a2b02" stroke="#000"></path><path d="M668 600L730 600L685 558.1Z" fill="#c07900" stroke="#000"></path><path d="M844 122.6L801 131.6L803 161.4Z" fill="#8a0303" stroke="#000"></path><path d="M803 161.4L801 131.6L751 134.6Z" fill="#b56000" stroke="#000"></path><path d="M721 36.9L684 0L661 28.9Z" fill="#8a0303" stroke="#000"></path><path d="M869 300L801 308L823 338.9Z" fill="#c58500" stroke="#000"></path><path d="M869 300L853 267.1L801 308Z" fill="#b56000" stroke="#000"></path><path d="M844 122.6L796 96.7L801 131.6Z" fill="#c99200" stroke="#000"></path><path d="M855 373.7L815 373.7L807 414.6Z" fill="#b56000" stroke="#000"></path><path d="M866 437.6L855 373.7L807 414.6Z" fill="#921b03" stroke="#000"></path><path d="M50 292L76 303L94 266.1Z" fill="#c58500" stroke="#000"></path><path d="M94 266.1L76 303L125 314Z" fill="#b56000" stroke="#000"></path><path d="M129 163.4L88 224.3L144 211.3Z" fill="#c07900" stroke="#000"></path><path d="M78 163.4L88 224.3L129 163.4Z" fill="#8a0303" stroke="#000"></path><path d="M168 551.1L189 600L220 546.1Z" fill="#a84600" stroke="#000"></path><path d="M125 544.1L168 551.1L140 508.3Z" fill="#8a0303" stroke="#000"></path><path d="M820 561.1L822 500.3L762 514.3Z" fill="#c58500" stroke="#000"></path><path d="M818 461.4L866 437.6L807 414.6Z" fill="#af5300" stroke="#000"></path><path d="M820 561.1L762 514.3L765 551.1Z" fill="#a13901" stroke="#000"></path><path d="M864 179.4L803 161.4L824 201.3Z" fill="#af5300" stroke="#000"></path><path d="M801 131.6L796 96.7L751 134.6Z" fill="#9a2b02" stroke="#000"></path><path d="M757 0L720 0L721 36.9Z" fill="#a84600" stroke="#000"></path><path d="M721 36.9L720 0L684 0Z" fill="#bb6c00" stroke="#000"></path><path d="M730 600L756 600L731 546.1Z" fill="#c58500" stroke="#000"></path><path d="M234 31.9L169 53.9L234 74.7Z" fill="#bb6c00" stroke="#000"></path><path d="M181 87.7L131 86.7L144 133.6Z" fill="#bb6c00" stroke="#000"></path><path d="M97 116.6L78 163.4L129 163.4Z" fill="#af5300" stroke="#000"></path><path d="M173 0L169 53.9L234 31.9Z" fill="#c99200" stroke="#000"></path><path d="M279 0L227 0L258 31.9Z" fill="#c07900" stroke="#000"></path><path d="M853 267.1L852 206.3L824 201.3Z" fill="#921b03" stroke="#000"></path><path d="M864 179.4L852 206.3L900 221.3Z" fill="#a13901" stroke="#000"></path><path d="M900 328.9L869 300L857 340.9Z" fill="#9a2b02" stroke="#000"></path><path d="M857 340.9L869 300L823 338.9Z" fill="#a84600" stroke="#000"></path><path d="M103 545.1L140 508.3L84 511.3Z" fill="#c58500" stroke="#000"></path><path d="M103 545.1L125 544.1L140 508.3Z" fill="#b56000" stroke="#000"></path><path d="M100 423.6L84 465.4L126 426.6Z" fill="#c07900" stroke="#000"></path><path d="M40 426.6L84 465.4L100 423.6Z" fill="#c99200" stroke="#000"></path><path d="M53 392.7L100 423.6L93 388.7Z" fill="#8a0303" stroke="#000"></path><path d="M766 28.9L721 36.9L752 72.7Z" fill="#a84600" stroke="#000"></path><path d="M124 48.9L131 86.7L169 53.9Z" fill="#921b03" stroke="#000"></path><path d="M169 53.9L131 86.7L181 87.7Z" fill="#a84600" stroke="#000"></path><path d="M867 465.4L818 461.4L822 500.3Z" fill="#8a0303" stroke="#000"></path><path d="M867 465.4L866 437.6L818 461.4Z" fill="#af5300" stroke="#000"></path><path d="M855 373.7L900 328.9L857 340.9Z" fill="#bb6c00" stroke="#000"></path><path d="M41 269.1L50 292L94 266.1Z" fill="#a13901" stroke="#000"></path><path d="M33 332.9L53 392.7L98 336.9Z" fill="#9a2b02" stroke="#000"></path><path d="M41 269.1L94 266.1L88 224.3Z" fill="#b56000" stroke="#000"></path><path d="M818 37.9L766 28.9L752 72.7Z" fill="#c07900" stroke="#000"></path><path d="M818 37.9L752 72.7L796 96.7Z" fill="#c07900" stroke="#000"></path><path d="M33 332.9L98 336.9L76 303Z" fill="#921b03" stroke="#000"></path><path d="M97 116.6L129 163.4L144 133.6Z" fill="#c07900" stroke="#000"></path><path d="M900 221.3L852 206.3L853 267.1Z" fill="#921b03" stroke="#000"></path><path d="M852 206.3L864 179.4L824 201.3Z" fill="#c58500" stroke="#000"></path><path d="M80 74.7L97 116.6L131 86.7Z" fill="#c07900" stroke="#000"></path><path d="M131 86.7L97 116.6L144 133.6Z" fill="#c99200" stroke="#000"></path><path d="M854 520.3L867 465.4L822 500.3Z" fill="#a84600" stroke="#000"></path><path d="M900 394.7L900 328.9L855 373.7Z" fill="#af5300" stroke="#000"></path><path d="M800 600L820 561.1L765 551.1Z" fill="#9a2b02" stroke="#000"></path><path d="M84 511.3L123 483.4L84 465.4Z" fill="#c99200" stroke="#000"></path><path d="M84 511.3L140 508.3L123 483.4Z" fill="#921b03" stroke="#000"></path><path d="M125 544.1L135 600L168 551.1Z" fill="#af5300" stroke="#000"></path><path d="M864 179.4L844 122.6L803 161.4Z" fill="#b56000" stroke="#000"></path><path d="M41 499.3L84 511.3L84 465.4Z" fill="#a84600" stroke="#000"></path><path d="M41 217.3L41 269.1L88 224.3Z" fill="#a13901" stroke="#000"></path><path d="M50 292L33 332.9L76 303Z" fill="#c58500" stroke="#000"></path><path d="M101 600L135 600L125 544.1Z" fill="#b56000" stroke="#000"></path><path d="M900 394.7L855 373.7L866 437.6Z" fill="#c58500" stroke="#000"></path><path d="M869 300L900 256.1L853 267.1Z" fill="#af5300" stroke="#000"></path><path d="M756 600L800 600L765 551.1Z" fill="#c99200" stroke="#000"></path><path d="M900 328.9L900 298L869 300Z" fill="#b56000" stroke="#000"></path><path d="M821 0L757 0L766 28.9Z" fill="#c07900" stroke="#000"></path><path d="M766 28.9L757 0L721 36.9Z" fill="#b56000" stroke="#000"></path><path d="M0 329.9L33 332.9L0 314Z" fill="#8a0303" stroke="#000"></path><path d="M53 392.7L40 426.6L100 423.6Z" fill="#921b03" stroke="#000"></path><path d="M852 544.1L854 520.3L822 500.3Z" fill="#af5300" stroke="#000"></path><path d="M900 423.6L900 394.7L866 437.6Z" fill="#a84600" stroke="#000"></path><path d="M852 544.1L822 500.3L820 561.1Z" fill="#8a0303" stroke="#000"></path><path d="M227 0L173 0L234 31.9Z" fill="#c58500" stroke="#000"></path><path d="M900 298L900 256.1L869 300Z" fill="#a13901" stroke="#000"></path><path d="M900 95.7L850 98.7L844 122.6Z" fill="#921b03" stroke="#000"></path><path d="M34 180.4L41 217.3L78 163.4Z" fill="#c58500" stroke="#000"></path><path d="M145 0L124 48.9L169 53.9Z" fill="#c58500" stroke="#000"></path><path d="M78 163.4L41 217.3L88 224.3Z" fill="#af5300" stroke="#000"></path><path d="M0 314L33 332.9L50 292Z" fill="#c07900" stroke="#000"></path><path d="M34 180.4L78 163.4L50 115.6Z" fill="#c99200" stroke="#000"></path><path d="M900 423.6L866 437.6L867 465.4Z" fill="#9a2b02" stroke="#000"></path><path d="M0 391.7L40 426.6L53 392.7Z" fill="#a13901" stroke="#000"></path><path d="M900 142.6L844 122.6L864 179.4Z" fill="#c07900" stroke="#000"></path><path d="M844 122.6L850 98.7L796 96.7Z" fill="#c99200" stroke="#000"></path><path d="M856 600L852 544.1L820 561.1Z" fill="#c58500" stroke="#000"></path><path d="M900 482.4L900 423.6L867 465.4Z" fill="#9a2b02" stroke="#000"></path><path d="M900 482.4L867 465.4L900 502.3Z" fill="#bb6c00" stroke="#000"></path><path d="M900 256.1L900 221.3L853 267.1Z" fill="#c58500" stroke="#000"></path><path d="M850 98.7L818 37.9L796 96.7Z" fill="#c07900" stroke="#000"></path><path d="M50 115.6L78 163.4L97 116.6Z" fill="#8a0303" stroke="#000"></path><path d="M0 314L50 292L41 269.1Z" fill="#bb6c00" stroke="#000"></path><path d="M173 0L145 0L169 53.9Z" fill="#a84600" stroke="#000"></path><path d="M124 48.9L80 74.7L131 86.7Z" fill="#a84600" stroke="#000"></path><path d="M900 221.3L900 174.4L864 179.4Z" fill="#8a0303" stroke="#000"></path><path d="M850 98.7L859 56.9L818 37.9Z" fill="#a84600" stroke="#000"></path><path d="M58 600L101 600L103 545.1Z" fill="#c99200" stroke="#000"></path><path d="M103 545.1L101 600L125 544.1Z" fill="#a13901" stroke="#000"></path><path d="M58 600L103 545.1L31 556.1Z" fill="#921b03" stroke="#000"></path><path d="M95 35.9L80 74.7L124 48.9Z" fill="#a13901" stroke="#000"></path><path d="M32 481.4L41 499.3L84 465.4Z" fill="#a84600" stroke="#000"></path><path d="M32 481.4L84 465.4L40 426.6Z" fill="#af5300" stroke="#000"></path><path d="M900 502.3L867 465.4L854 520.3Z" fill="#9a2b02" stroke="#000"></path><path d="M0 473.4L32 481.4L40 426.6Z" fill="#c99200" stroke="#000"></path><path d="M0 391.7L53 392.7L33 332.9Z" fill="#c99200" stroke="#000"></path><path d="M80 74.7L50 115.6L97 116.6Z" fill="#9a2b02" stroke="#000"></path><path d="M0 314L41 269.1L0 265.1Z" fill="#c07900" stroke="#000"></path><path d="M0 265.1L41 217.3L0 221.3Z" fill="#9a2b02" stroke="#000"></path><path d="M0 265.1L41 269.1L41 217.3Z" fill="#c07900" stroke="#000"></path><path d="M900 560.1L854 520.3L852 544.1Z" fill="#c58500" stroke="#000"></path><path d="M900 560.1L900 502.3L854 520.3Z" fill="#c07900" stroke="#000"></path><path d="M900 174.4L900 142.6L864 179.4Z" fill="#c99200" stroke="#000"></path><path d="M80 74.7L45 99.7L50 115.6Z" fill="#a84600" stroke="#000"></path><path d="M145 0L95 35.9L124 48.9Z" fill="#a13901" stroke="#000"></path><path d="M0 221.3L41 217.3L34 180.4Z" fill="#a84600" stroke="#000"></path><path d="M0 329.9L0 391.7L33 332.9Z" fill="#bb6c00" stroke="#000"></path><path d="M900 95.7L859 56.9L850 98.7Z" fill="#921b03" stroke="#000"></path><path d="M818 37.9L821 0L766 28.9Z" fill="#a84600" stroke="#000"></path><path d="M0 391.7L0 414.6L40 426.6Z" fill="#a84600" stroke="#000"></path><path d="M32 36.9L45 99.7L80 74.7Z" fill="#c07900" stroke="#000"></path><path d="M0 117.6L0 176.4L34 180.4Z" fill="#c58500" stroke="#000"></path><path d="M0 176.4L0 221.3L34 180.4Z" fill="#c07900" stroke="#000"></path><path d="M800 600L856 600L820 561.1Z" fill="#af5300" stroke="#000"></path><path d="M855 0L821 0L818 37.9Z" fill="#c07900" stroke="#000"></path><path d="M900 142.6L900 95.7L844 122.6Z" fill="#b56000" stroke="#000"></path><path d="M859 56.9L855 0L818 37.9Z" fill="#c07900" stroke="#000"></path><path d="M0 117.6L34 180.4L50 115.6Z" fill="#8a0303" stroke="#000"></path><path d="M0 414.6L0 473.4L40 426.6Z" fill="#bb6c00" stroke="#000"></path><path d="M32 481.4L0 505.3L41 499.3Z" fill="#a84600" stroke="#000"></path><path d="M31 556.1L103 545.1L84 511.3Z" fill="#9a2b02" stroke="#000"></path><path d="M856 600L900 560.1L852 544.1Z" fill="#a84600" stroke="#000"></path><path d="M31 556.1L84 511.3L41 499.3Z" fill="#9a2b02" stroke="#000"></path><path d="M0 505.3L31 556.1L41 499.3Z" fill="#9a2b02" stroke="#000"></path><path d="M145 0L87 0L95 35.9Z" fill="#a13901" stroke="#000"></path><path d="M95 35.9L32 36.9L80 74.7Z" fill="#8a0303" stroke="#000"></path><path d="M45 99.7L0 117.6L50 115.6Z" fill="#921b03" stroke="#000"></path><path d="M0 473.4L0 505.3L32 481.4Z" fill="#bb6c00" stroke="#000"></path><path d="M900 50.9L855 0L859 56.9Z" fill="#8a0303" stroke="#000"></path><path d="M0 76.7L0 117.6L45 99.7Z" fill="#8a0303" stroke="#000"></path><path d="M900 95.7L900 50.9L859 56.9Z" fill="#c07900" stroke="#000"></path><path d="M856 600L900 600L900 560.1Z" fill="#a84600" stroke="#000"></path><path d="M47 0L32 36.9L95 35.9Z" fill="#a13901" stroke="#000"></path><path d="M0 505.3L0 561.1L31 556.1Z" fill="#c99200" stroke="#000"></path><path d="M31 556.1L0 600L58 600Z" fill="#c99200" stroke="#000"></path><path d="M32 36.9L0 76.7L45 99.7Z" fill="#a84600" stroke="#000"></path><path d="M87 0L47 0L95 35.9Z" fill="#c58500" stroke="#000"></path><path d="M32 36.9L0 51.9L0 76.7Z" fill="#af5300" stroke="#000"></path><path d="M0 0L0 51.9L32 36.9Z" fill="#8a0303" stroke="#000"></path><path d="M900 50.9L900 0L855 0Z" fill="#bb6c00" stroke="#000"></path><path d="M0 561.1L0 600L31 556.1Z" fill="#a13901" stroke="#000"></path><path d="M47 0L0 0L32 36.9Z" fill="#af5300" stroke="#000"></path></g></svg>