<svg id="visual" viewBox="0 0 900 600" width="900" height="600" xmlns="http://www.w3.org/2000/svg" xmlns:xlink="http://www.w3.org/1999/xlink" version="1.1"><g stroke-width="1" stroke-linejoin="bevel"><path d="M491 289L421 162L385 286Z" fill="#c2070e" stroke="#c2070e"></path><path d="M491 289L524 185L421 162Z" fill="#e62a40" stroke="#e62a40"></path><path d="M499 89L407 111L421 162Z" fill="#df2437" stroke="#df2437"></path><path d="M421 162L266 226L385 286Z" fill="#f93e5d" stroke="#f93e5d"></path><path d="M524 185L499 89L421 162Z" fill="#c90f1a" stroke="#c90f1a"></path><path d="M369 0L320 120L407 111Z" fill="#ec314a" stroke="#ec314a"></path><path d="M407 111L320 120L421 162Z" fill="#ff4466" stroke="#ff4466"></path><path d="M266 226L280 284L385 286Z" fill="#f93e5d" stroke="#f93e5d"></path><path d="M385 286L407 424L491 289Z" fill="#ec314a" stroke="#ec314a"></path><path d="M320 120L266 226L421 162Z" fill="#ec314a" stroke="#ec314a"></path><path d="M280 284L306 370L385 286Z" fill="#ba0001" stroke="#ba0001"></path><path d="M635 182L577 102L524 185Z" fill="#df2437" stroke="#df2437"></path><path d="M524 185L577 102L499 89Z" fill="#df2437" stroke="#df2437"></path><path d="M306 370L407 424L385 286Z" fill="#f33753" stroke="#f33753"></path><path d="M581 389L635 274L491 289Z" fill="#ff4466" stroke="#ff4466"></path><path d="M491 289L635 274L524 185Z" fill="#f93e5d" stroke="#f93e5d"></path><path d="M635 274L635 182L524 185Z" fill="#f33753" stroke="#f33753"></path><path d="M521 434L581 389L491 289Z" fill="#ff4466" stroke="#ff4466"></path><path d="M320 120L234 180L266 226Z" fill="#d81d2d" stroke="#d81d2d"></path><path d="M266 226L173 276L280 284Z" fill="#ec314a" stroke="#ec314a"></path><path d="M280 284L191 376L306 370Z" fill="#e62a40" stroke="#e62a40"></path><path d="M407 424L521 434L491 289Z" fill="#ba0001" stroke="#ba0001"></path><path d="M592 0L499 0L499 89Z" fill="#c90f1a" stroke="#c90f1a"></path><path d="M499 89L499 0L407 111Z" fill="#f33753" stroke="#f33753"></path><path d="M499 0L369 0L407 111Z" fill="#ba0001" stroke="#ba0001"></path><path d="M320 120L206 71L234 180Z" fill="#c2070e" stroke="#c2070e"></path><path d="M369 0L325 0L320 120Z" fill="#f93e5d" stroke="#f93e5d"></path><path d="M735 313L694 175L635 274Z" fill="#f93e5d" stroke="#f93e5d"></path><path d="M635 274L694 175L635 182Z" fill="#c2070e" stroke="#c2070e"></path><path d="M635 182L725 108L577 102Z" fill="#d11724" stroke="#d11724"></path><path d="M577 102L592 0L499 89Z" fill="#c90f1a" stroke="#c90f1a"></path><path d="M104 176L173 276L234 180Z" fill="#f33753" stroke="#f33753"></path><path d="M234 180L173 276L266 226Z" fill="#f93e5d" stroke="#f93e5d"></path><path d="M407 424L465 505L521 434Z" fill="#c90f1a" stroke="#c90f1a"></path><path d="M691 480L707 392L581 389Z" fill="#d81d2d" stroke="#d81d2d"></path><path d="M439 527L465 505L407 424Z" fill="#ff4466" stroke="#ff4466"></path><path d="M284 480L407 424L306 370Z" fill="#ff4466" stroke="#ff4466"></path><path d="M692 0L592 0L577 102Z" fill="#d11724" stroke="#d11724"></path><path d="M325 0L206 71L320 120Z" fill="#c2070e" stroke="#c2070e"></path><path d="M173 276L191 376L280 284Z" fill="#ec314a" stroke="#ec314a"></path><path d="M191 376L284 480L306 370Z" fill="#f93e5d" stroke="#f93e5d"></path><path d="M284 480L439 527L407 424Z" fill="#c90f1a" stroke="#c90f1a"></path><path d="M707 392L735 313L635 274Z" fill="#c90f1a" stroke="#c90f1a"></path><path d="M707 392L635 274L581 389Z" fill="#e62a40" stroke="#e62a40"></path><path d="M581 389L521 434L599 525Z" fill="#c2070e" stroke="#c2070e"></path><path d="M599 525L521 434L465 505Z" fill="#d11724" stroke="#d11724"></path><path d="M694 175L725 108L635 182Z" fill="#ba0001" stroke="#ba0001"></path><path d="M762 162L725 108L694 175Z" fill="#c90f1a" stroke="#c90f1a"></path><path d="M735 313L762 162L694 175Z" fill="#ff4466" stroke="#ff4466"></path><path d="M502 600L599 525L465 505Z" fill="#c2070e" stroke="#c2070e"></path><path d="M325 0L203 0L206 71Z" fill="#ec314a" stroke="#ec314a"></path><path d="M101 334L131 373L173 276Z" fill="#ff4466" stroke="#ff4466"></path><path d="M173 276L131 373L191 376Z" fill="#ba0001" stroke="#ba0001"></path><path d="M191 376L182 494L284 480Z" fill="#d11724" stroke="#d11724"></path><path d="M104 176L234 180L102 138Z" fill="#e62a40" stroke="#e62a40"></path><path d="M102 138L234 180L206 71Z" fill="#ba0001" stroke="#ba0001"></path><path d="M835 0L692 0L725 108Z" fill="#ec314a" stroke="#ec314a"></path><path d="M725 108L692 0L577 102Z" fill="#df2437" stroke="#df2437"></path><path d="M76 0L102 138L206 71Z" fill="#df2437" stroke="#df2437"></path><path d="M599 525L691 480L581 389Z" fill="#d11724" stroke="#d11724"></path><path d="M819 431L814 282L735 313Z" fill="#d11724" stroke="#d11724"></path><path d="M104 176L101 334L173 276Z" fill="#ec314a" stroke="#ec314a"></path><path d="M0 208L101 334L104 176Z" fill="#c2070e" stroke="#c2070e"></path><path d="M128 476L182 494L191 376Z" fill="#ff4466" stroke="#ff4466"></path><path d="M284 480L394 600L439 527Z" fill="#d81d2d" stroke="#d81d2d"></path><path d="M128 476L191 376L131 373Z" fill="#f93e5d" stroke="#f93e5d"></path><path d="M303 600L394 600L284 480Z" fill="#c2070e" stroke="#c2070e"></path><path d="M439 527L502 600L465 505Z" fill="#f93e5d" stroke="#f93e5d"></path><path d="M394 600L502 600L439 527Z" fill="#ec314a" stroke="#ec314a"></path><path d="M599 525L674 600L691 480Z" fill="#d11724" stroke="#d11724"></path><path d="M735 313L814 282L762 162Z" fill="#ff4466" stroke="#ff4466"></path><path d="M762 162L811 137L725 108Z" fill="#ec314a" stroke="#ec314a"></path><path d="M819 431L735 313L707 392Z" fill="#ec314a" stroke="#ec314a"></path><path d="M814 282L811 137L762 162Z" fill="#c2070e" stroke="#c2070e"></path><path d="M210 600L303 600L284 480Z" fill="#c2070e" stroke="#c2070e"></path><path d="M0 423L128 476L131 373Z" fill="#ba0001" stroke="#ba0001"></path><path d="M182 494L210 600L284 480Z" fill="#c90f1a" stroke="#c90f1a"></path><path d="M502 600L633 600L599 525Z" fill="#df2437" stroke="#df2437"></path><path d="M691 480L819 431L707 392Z" fill="#c2070e" stroke="#c2070e"></path><path d="M823 509L819 431L691 480Z" fill="#c90f1a" stroke="#c90f1a"></path><path d="M900 90L835 0L811 137Z" fill="#ff4466" stroke="#ff4466"></path><path d="M131 600L210 600L182 494Z" fill="#e62a40" stroke="#e62a40"></path><path d="M203 0L76 0L206 71Z" fill="#df2437" stroke="#df2437"></path><path d="M102 138L0 208L104 176Z" fill="#e62a40" stroke="#e62a40"></path><path d="M633 600L674 600L599 525Z" fill="#df2437" stroke="#df2437"></path><path d="M0 102L0 208L102 138Z" fill="#d11724" stroke="#d11724"></path><path d="M101 334L0 423L131 373Z" fill="#f93e5d" stroke="#f93e5d"></path><path d="M0 208L0 320L101 334Z" fill="#d81d2d" stroke="#d81d2d"></path><path d="M128 476L131 600L182 494Z" fill="#ff4466" stroke="#ff4466"></path><path d="M76 0L0 102L102 138Z" fill="#d11724" stroke="#d11724"></path><path d="M811 137L835 0L725 108Z" fill="#c2070e" stroke="#c2070e"></path><path d="M900 212L811 137L814 282Z" fill="#ff4466" stroke="#ff4466"></path><path d="M900 281L900 212L814 282Z" fill="#c90f1a" stroke="#c90f1a"></path><path d="M900 395L900 281L814 282Z" fill="#d11724" stroke="#d11724"></path><path d="M769 600L823 509L691 480Z" fill="#f93e5d" stroke="#f93e5d"></path><path d="M819 431L900 395L814 282Z" fill="#e62a40" stroke="#e62a40"></path><path d="M0 320L0 423L101 334Z" fill="#f93e5d" stroke="#f93e5d"></path><path d="M0 520L131 600L128 476Z" fill="#c90f1a" stroke="#c90f1a"></path><path d="M900 212L900 90L811 137Z" fill="#c90f1a" stroke="#c90f1a"></path><path d="M900 489L900 395L819 431Z" fill="#f33753" stroke="#f33753"></path><path d="M674 600L769 600L691 480Z" fill="#c2070e" stroke="#c2070e"></path><path d="M823 509L900 489L819 431Z" fill="#d11724" stroke="#d11724"></path><path d="M76 0L0 0L0 102Z" fill="#c90f1a" stroke="#c90f1a"></path><path d="M900 90L900 0L835 0Z" fill="#d11724" stroke="#d11724"></path><path d="M0 423L0 520L128 476Z" fill="#d11724" stroke="#d11724"></path><path d="M900 600L900 489L823 509Z" fill="#ba0001" stroke="#ba0001"></path><path d="M0 520L0 600L131 600Z" fill="#f33753" stroke="#f33753"></path><path d="M769 600L900 600L823 509Z" fill="#c2070e" stroke="#c2070e"></path></g></svg>